<svg version="1.1" xmlns="http://www.w3.org/2000/svg" xmlns:xlink="http://www.w3.org/1999/xlink" width="492" height="408" viewBox="0,0,492,408"><g transform="translate(8.5,11)"><g data-paper-data="{&quot;isPaintingLayer&quot;:true}" fill-rule="nonzero" stroke-linejoin="miter" stroke-miterlimit="10" stroke-dasharray="" stroke-dashoffset="0" style="mix-blend-mode: normal"><path d="M-8.5,372v-377h382v377z" fill="#22b73c" stroke="none" stroke-width="0" stroke-linecap="butt"/><path d="M109.5,89c0,18.22539 -14.99846,33 -33.5,33c-18.50154,0 -33.5,-14.77461 -33.5,-33c0,-18.22539 14.99846,-33 33.5,-33c18.50154,0 33.5,14.77461 33.5,33z" fill="#0fa528" stroke="none" stroke-width="0" stroke-linecap="butt"/><path d="M117.5,297c0,18.22539 -14.99846,33 -33.5,33c-18.50154,0 -33.5,-14.77461 -33.5,-33c0,-18.22539 14.99846,-33 33.5,-33c18.50154,0 33.5,14.77461 33.5,33z" fill="#0fa528" stroke="none" stroke-width="0" stroke-linecap="butt"/><path d="M221.5,176c0,18.22539 -14.99846,33 -33.5,33c-18.50154,0 -33.5,-14.77461 -33.5,-33c0,-18.22539 14.99846,-33 33.5,-33c18.50154,0 33.5,14.77461 33.5,33z" fill="#0fa528" stroke="none" stroke-width="0" stroke-linecap="butt"/><path d="M247.5,79c0,18.22539 -14.99846,33 -33.5,33c-18.50154,0 -33.5,-14.77461 -33.5,-33c0,-18.22539 14.99846,-33 33.5,-33c18.50154,0 33.5,14.77461 33.5,33z" fill="#0fa528" stroke="none" stroke-width="0" stroke-linecap="butt"/><path d="M289.5,299c0,18.22539 -14.99846,33 -33.5,33c-18.50154,0 -33.5,-14.77461 -33.5,-33c0,-18.22539 14.99846,-33 33.5,-33c18.50154,0 33.5,14.77461 33.5,33z" fill="#0fa528" stroke="none" stroke-width="0" stroke-linecap="butt"/><path d="M363.5,397v-408h120v408z" fill="#939393" stroke="none" stroke-width="0" stroke-linecap="butt"/><path d="M439.5,194v-17h16v17z" fill="#a76900" stroke="none" stroke-width="0" stroke-linecap="butt"/><path d="M448.5,284v-191h33v191z" fill="#565656" stroke="none" stroke-width="0" stroke-linecap="butt"/><path d="M449.5,65v-76h33v76z" fill="#565656" stroke="none" stroke-width="0" stroke-linecap="butt"/><path d="M448.5,368v-67h33v67z" fill="#565656" stroke="none" stroke-width="0" stroke-linecap="butt"/><path d="M400.5,35.5c-2.5,0 -2.5,-2.5 -2.5,-2.5c0,-5.66667 0,-12.33333 0,-18c0,0 0,-2.5 2.5,-2.5c2.5,0 2.5,2.5 2.5,2.5c0,5.66667 0,11.33333 0,17v1c0,0 0,2.5 -2.5,2.5z" fill="#ffea00" stroke="none" stroke-width="0.5" stroke-linecap="butt"/><path d="M398.5,92.5c-2.5,0 -2.5,-2.5 -2.5,-2.5c0,-7.66666 0,-17.33334 0,-25c0,0 0,-2.5 2.5,-2.5c2.5,0 2.5,2.5 2.5,2.5c0,7.66666 0,15.33334 0,23v2c0,0 0,2.5 -2.5,2.5z" fill="#ffea00" stroke="none" stroke-width="0.5" stroke-linecap="butt"/><path d="M399.5,162.5c-2.5,0 -2.5,-2.5 -2.5,-2.5c0,-11 0,-24 0,-35c0,0 0,-2.5 2.5,-2.5c2.5,0 2.5,2.5 2.5,2.5c0,11 0,22 0,33v2c0,0 0,2.5 -2.5,2.5z" fill="#ffea00" stroke="none" stroke-width="0.5" stroke-linecap="butt"/><path d="M400.5,232.5c-2.5,0 -2.5,-2.5 -2.5,-2.5c0,-9 0,-20 0,-29c0,0 0,-2.5 2.5,-2.5c2.5,0 2.5,2.5 2.5,2.5c0,9 0,18 0,27v2c0,0 0,2.5 -2.5,2.5z" fill="#ffea00" stroke="none" stroke-width="0.5" stroke-linecap="butt"/><path d="M397.70943,300.37171c-2.37171,-0.79057 -1.58114,-3.16228 -1.58114,-3.16228l0.90399,-2.60989c-0.13077,-10.53069 -0.03228,-21.06815 -0.03228,-31.59954c0,0 0,-2.5 2.5,-2.5c2.5,0 2.5,2.5 2.5,2.5c0,10.79929 0.07023,21.60159 -0.03228,32.40046l-1.09601,3.39011c0,0 -0.79057,2.37171 -3.16228,1.58114z" fill="#ffea00" stroke="none" stroke-width="0.5" stroke-linecap="butt"/><path d="M399.5,355.5c-2.5,0 -2.5,-2.5 -2.5,-2.5c0,-5.66667 0,-14.33333 0,-20c0,0 0,-2.5 2.5,-2.5c2.5,0 2.5,2.5 2.5,2.5c0,5.66667 0,11.33333 0,17v3c0,0 0,2.5 -2.5,2.5z" fill="#ffea00" stroke="none" stroke-width="0.5" stroke-linecap="butt"/><path d="M425.5,0v359" fill="none" stroke="#000000" stroke-width="2" stroke-linecap="round"/></g></g></svg>