<svg version="1.1" xmlns="http://www.w3.org/2000/svg" xmlns:xlink="http://www.w3.org/1999/xlink" width="42.09415" height="21.28652" viewBox="0,0,42.09415,21.28652"><g transform="translate(-228.61418,-169.35674)"><g data-paper-data="{&quot;isPaintingLayer&quot;:true}" fill-rule="nonzero" stroke="none" stroke-linecap="butt" stroke-linejoin="miter" stroke-miterlimit="10" stroke-dasharray="" stroke-dashoffset="0" style="mix-blend-mode: normal"><path d="M251.38582,180c0,5.87811 -5.0976,10.64326 -11.38582,10.64326c-6.28821,0 -11.38582,-4.76515 -11.38582,-10.64326c0,-5.87811 5.0976,-10.64326 11.38582,-10.64326c6.28821,0 11.38582,4.76515 11.38582,10.64326z" fill="#ff0000" stroke-width="0"/><path d="M245.75691,185.92589c0.56901,-0.99576 1.20181,-1.54897 1.92761,-1.85504c1.17591,-0.49589 2.5959,-0.34307 4.3841,-0.37262c1.36319,-0.02253 2.72778,0.05318 4.09011,0c0.86015,-0.03358 3.38814,-2.54795 4.26361,-2.98568c1.62864,-0.81432 3.94957,0.62421 2.97985,2.53833c-0.32984,0.65106 -1.52081,0.97994 -2.06584,1.35424c-1.29042,0.88618 -2.66027,2.36745 -4.22537,2.71062c-1.67182,0.36657 -3.43918,-0.12678 -5.12413,0.14665c-0.94734,0.15373 -1.91858,0.0651 -2.87829,0.07238c-0.56101,0.00425 -2.03158,0.70125 -2.43744,-0.00901z" fill="#ff0000" stroke-width="0.5"/><path d="M247.59297,176.36868c0,-0.34175 0.27704,-0.61879 0.61879,-0.61879c0.34175,0 0.61879,0.27704 0.61879,0.61879c0,0.34175 -0.27704,0.61879 -0.61879,0.61879c-0.34175,0 -0.61879,-0.27704 -0.61879,-0.61879z" fill="#000000" stroke-width="0.5"/><path d="M247.74202,181.36962c0,-0.34175 0.27704,-0.61879 0.61879,-0.61879c0.34175,0 0.61879,0.27704 0.61879,0.61879c0,0.34175 -0.27704,0.61879 -0.61879,0.61879c-0.34175,0 -0.61879,-0.27704 -0.61879,-0.61879z" fill="#000000" stroke-width="0.5"/><path d="M258.95124,182.8773v-2.97021h11.75709v2.97021z" fill="#000000" stroke-width="0"/><path d="M249.70885,176.02453c0.17678,-0.17678 0.35355,0 0.35355,0l0.25811,0.26757c0.80574,2.29157 -0.20886,3.61973 -0.18488,5.7981c0,0 0,0.25 -0.25,0.25c-0.25,0 -0.25,-0.25 -0.25,-0.25c0.01801,-2.08312 0.92915,-3.36296 0.25956,-5.53523l-0.18634,-0.17688c0,0 -0.17678,-0.17678 0,-0.35355z" fill="#000000" stroke-width="0.5"/></g></g></svg>