<svg version="1.1" xmlns="http://www.w3.org/2000/svg" xmlns:xlink="http://www.w3.org/1999/xlink" width="43.67235" height="29.5072" viewBox="0,0,43.67235,29.5072"><g transform="translate(-218.16382,-165.2464)"><g data-paper-data="{&quot;isPaintingLayer&quot;:true}" fill="#000000" fill-rule="nonzero" stroke="none" stroke-width="0" stroke-linecap="butt" stroke-linejoin="miter" stroke-miterlimit="10" stroke-dasharray="" stroke-dashoffset="0" style="mix-blend-mode: normal"><path d="M218.16382,186.37702v-13.74109h12.62695v13.74109z"/><path d="M220.39211,181.24435l18.56905,-15.99795v28.18686z"/><path d="M246.39673,180.58315c0,6.71645 -3.32075,8.45997 -4.54724,8.45997c-1.22648,0 2.85524,-1.84927 2.85524,-8.56572c0,-6.71645 -4.61047,-9.30597 -3.38399,-9.30597c1.22648,0 5.07598,2.69527 5.07598,9.41172z"/><path d="M252.74171,181.00423c0,8.7329 -4.31773,10.99987 -5.91243,10.99987c-1.5947,0 3.71246,-2.40447 3.71246,-11.13737c0,-8.7329 -5.99465,-12.09986 -4.39995,-12.09986c1.5947,0 6.59992,3.50446 6.59992,12.23736z"/><path d="M261.83618,181.0445c0,10.88378 -5.38117,13.7091 -7.36864,13.7091c-1.98747,0 4.62682,-2.99668 4.62682,-13.88046c0,-10.88378 -7.47111,-15.08001 -5.48364,-15.08001c1.98747,0 8.22546,4.36759 8.22546,15.25137z"/></g></g></svg>