<svg version="1.1" xmlns="http://www.w3.org/2000/svg" xmlns:xlink="http://www.w3.org/1999/xlink" width="681.02064" height="414.5" viewBox="0,0,681.02064,414.5"><g transform="translate(45.52061,27.5)"><g data-paper-data="{&quot;isPaintingLayer&quot;:true}" fill-rule="nonzero" stroke-linejoin="miter" stroke-miterlimit="10" stroke-dasharray="" stroke-dashoffset="0" style="mix-blend-mode: normal"><path d="M-13.49997,387v-328l-3,-69l48.23967,6c0,0 139.30455,17.89048 143.11892,21.88649c2.099,2.19895 460.64141,0.11351 460.64141,0.11351v369z" fill="#4a4a4a" stroke="none" stroke-width="0" stroke-linecap="butt"/><path d="M22.66669,303v-330.5h466.66667v330.5z" fill="#6d6d6d" stroke="none" stroke-width="0" stroke-linecap="butt"/><path d="M405.2825,126v-112.25707h15.71754v112.25707z" fill="#4a4a4a" stroke="none" stroke-width="0" stroke-linecap="butt"/><path d="M405.53153,303.65157v-75.90864h16.8631v75.90864z" fill="#4a4a4a" stroke="none" stroke-width="0" stroke-linecap="butt"/><path d="M33.50002,160.16667v-101.66667h46v101.66667z" fill="#d0d0d0" stroke="#1a0000" stroke-width="2.5" stroke-linecap="butt"/><path d="M42.50002,178.5l-10,-19" fill="none" stroke="#1a0000" stroke-width="2.5" stroke-linecap="round"/><path d="M79.83335,160.5l12,14" fill="none" stroke="#1a0000" stroke-width="2.5" stroke-linecap="round"/><path d="M100.16666,72.5l-20,-14" fill="none" stroke="#1a0000" stroke-width="2.5" stroke-linecap="round"/><path d="M224.68146,131.22247l51.85108,-55.56497l38.38369,35.81818l-51.85108,55.56497z" fill="#8e4c00" stroke="none" stroke-width="0" stroke-linecap="butt"/><path d="M312.43062,111.20786l-2.04487,22.71164" fill="none" stroke="#8e4c00" stroke-width="3.5" stroke-linecap="round"/><path d="M263.6008,162.06943l-2.80041,21.3227" fill="none" stroke="#8e4c00" stroke-width="3.5" stroke-linecap="round"/><path d="M227.82489,130.0525l-2.84929,19.90933" fill="none" stroke="#8e4c00" stroke-width="3.5" stroke-linecap="round"/><g stroke="none" stroke-width="0" stroke-linecap="butt"><path d="M397.17504,33.83309l5.95073,-8.65094l2.4717,1.70021l-5.95074,8.65094z" fill="#9a9a9a"/><path d="M391.9184,47.20958c-0.54775,0.7963 -1.78077,0.8991 -2.75402,0.22964c-0.97325,-0.66947 -1.31819,-1.85771 -0.77044,-2.65401c0.54775,-0.7963 1.78077,-0.8991 2.75402,-0.22964c0.97325,0.66947 1.31819,1.85771 0.77044,2.65401z" fill="#000000"/><path d="M387.59293,44.23421l10.05956,-14.62421l5.56132,3.82547l-10.05957,14.62422z" fill="#9a9a9a"/><path d="M410.52898,26.32995c-1.4085,2.04762 -4.57911,2.312 -7.08176,0.5905c-2.50265,-1.7215 -3.38963,-4.77698 -1.98113,-6.8246c1.4085,-2.04762 4.57911,-2.31199 7.08176,-0.5905c2.50265,1.7215 3.38963,4.77698 1.98113,6.82459z" fill="#9a9a9a"/></g><g stroke="none" stroke-width="0" stroke-linecap="butt"><path d="M-41.27061,133.36524v-10.5h3v10.5z" fill="#9a9a9a"/><path d="M-38.02061,147.36524c0,0.9665 -0.95761,1.75 -2.13889,1.75c-1.18127,0 -2.13889,-0.7835 -2.13889,-1.75c0,-0.9665 0.95762,-1.75 2.13889,-1.75c1.18127,0 2.13889,0.7835 2.13889,1.75z" fill="#000000"/><path d="M-43.27061,147.36524v-17.75h6.75v17.75z" fill="#9a9a9a"/><path d="M-34.52061,119.61524c0,2.48528 -2.46243,4.5 -5.5,4.5c-3.03757,0 -5.5,-2.01472 -5.5,-4.5c0,-2.48528 2.46243,-4.5 5.5,-4.5c3.03757,0 5.5,2.01472 5.5,4.5z" fill="#9a9a9a"/></g><g stroke="none" stroke-width="0" stroke-linecap="butt"><path d="M427.29877,34.27385l-6.81292,-7.98962l2.28275,-1.94655l6.81292,7.98962z" fill="#9a9a9a"/><path d="M438.85565,42.81791c0.62711,0.73543 0.40682,1.95295 -0.49203,2.71942c-0.89885,0.76647 -2.13589,0.79164 -2.763,0.05621c-0.62711,-0.73543 -0.40682,-1.95295 0.49203,-2.71942c0.89885,-0.76647 2.13589,-0.79164 2.763,-0.05621z" fill="#000000"/><path d="M434.86084,46.22438l-11.51708,-13.50627l5.13619,-4.37974l11.51708,13.50627z" fill="#9a9a9a"/><path d="M423.51327,19.43151c1.61257,1.89109 1.04612,5.02187 -1.26522,6.9928c-2.31133,1.97092 -5.49229,2.03564 -7.10486,0.14455c-1.61257,-1.89109 -1.04612,-5.02187 1.26522,-6.9928c2.31133,-1.97092 5.49229,-2.03564 7.10486,-0.14455z" fill="#9a9a9a"/></g><path d="M44.44653,78.258c-3.3073,-1.78293 -3.63478,-3.97821 -3.71381,-6.04258c-0.09459,-2.47054 0.65587,-4.78682 3.71381,-6.43533c3.10477,-1.67375 7.98021,-2.07492 12.63973,-1.98862c3.76449,0.06972 7.27014,0.24388 10.50661,1.98862c3.27244,1.76413 3.58478,3.81187 3.74762,5.82935c0.19756,2.44753 -0.41229,4.85052 -3.74762,6.64856c-2.91469,1.57127 -6.68109,1.0741 -10.61299,1.22223c-4.27627,0.16111 -8.7483,0.81824 -12.53335,-1.22223z" fill="#4b8dcb" stroke="#1a0000" stroke-width="0.5" stroke-linecap="butt"/><path d="M32.60675,157.94005v-72.81556h46.33333v72.81556z" fill="#458dd1" stroke="#1a0000" stroke-width="2.5" stroke-linecap="butt"/><g stroke-linecap="butt"><path d="M197.74929,283.74925c0,10.49341 -10.0736,19 -22.5,19c-12.4264,0 -22.5,-8.50659 -22.5,-19c0,-10.49341 10.0736,-19 22.5,-19c12.4264,0 22.5,8.50659 22.5,19z" fill="#929292" stroke="none" stroke-width="0"/><path d="M152.74928,302.74925v-22h45v22z" fill="#929292" stroke="none" stroke-width="0"/><path d="M177.24929,282.12425c0,1.51878 -1.11929,2.75 -2.5,2.75c-1.38071,0 -2.5,-1.23122 -2.5,-2.75c0,-1.51878 1.11929,-2.75 2.5,-2.75c1.38071,0 2.5,1.23122 2.5,2.75z" fill="#000000" stroke="none" stroke-width="0"/><path d="M190.51903,281.57902c0,6.67147 -6.99997,12.07976 -15.63486,12.07976c-8.6349,0 -15.63487,-5.40829 -15.63487,-12.07976c0,-6.67147 6.99997,-12.07977 15.63487,-12.07977c8.6349,0 15.63486,5.4083 15.63486,12.07977z" fill="none" stroke="#000000" stroke-width="1.5"/><path d="M170.99929,300.87425v-5.625h6v5.625z" fill="#000000" stroke="none" stroke-width="0"/><path d="M172.49929,295.37425v-7.75h2.75v7.75z" fill="#000000" stroke="none" stroke-width="0"/><path d="M179.24929,300.12425v-4.25h4v4.25z" fill="#000000" stroke="none" stroke-width="0"/><path d="M182.24929,298.87425v-1.66667h5.33334v1.66667z" fill="#000000" stroke="none" stroke-width="0"/><path d="M164.24928,300.12425v-4.25h4v4.25z" data-paper-data="{&quot;index&quot;:null}" fill="#000000" stroke="none" stroke-width="0"/><path d="M159.91596,298.95759v-1.66666h5.33333v1.66666z" data-paper-data="{&quot;index&quot;:null}" fill="#000000" stroke="none" stroke-width="0"/></g><path d="M408.73971,231.5v-107h10v107z" fill="#000000" stroke="none" stroke-width="NaN" stroke-linecap="butt"/><path d="M273.22968,119.84731l-8.40673,-27.85349l21.28132,-6.42312l8.40673,27.85349z" fill="#ebebeb" stroke="none" stroke-width="NaN" stroke-linecap="butt"/><path d="M177.35429,4.80797h-3.49802" fill="none" stroke="#000000" stroke-width="1" stroke-linecap="round"/><path d="M177.85401,11.63744h-3.33145" fill="none" stroke="#000000" stroke-width="1" stroke-linecap="round"/><path d="M175.68857,7.80628h2.9983" fill="none" stroke="#000000" stroke-width="1" stroke-linecap="round"/><path d="M228.82516,0.97681l-3.66459,0.83286" fill="none" stroke="#000000" stroke-width="1" stroke-linecap="round"/><path d="M-24.49997,16v-21h204c0,0 -2.75,5.73298 -2.75,9.025c0,0.2802 -1.53613,2.8661 -0.55956,4.239c1.00752,1.41641 4.52858,1.62221 4.51869,1.99876c-0.03413,1.29966 -6.31235,0.54774 -6.20913,2.01223c0.25,3.54698 -4.75,0.925 -4.75,0.925c0,0 4.17191,5.72013 1.92274,5.7069c-1.23206,-0.00725 -3.40408,0.73439 -4.99985,0.725c-0.47153,-0.00277 0.27439,-4.25564 -0.25265,-4.25859c-1.47226,-0.00824 -3.12375,1.73284 -4.74567,1.7233c-47.58569,-0.27992 -186.17456,-1.09662 -186.17456,-1.09662z" fill="#4a4a4a" stroke="none" stroke-width="0" stroke-linecap="butt"/><path d="M234.32205,7.80628h-4.66403" fill="none" stroke="#000000" stroke-width="1" stroke-linecap="round"/><path d="M240.48523,15.13546l-7.49576,-0.49972" fill="none" stroke="#000000" stroke-width="1" stroke-linecap="round"/><path d="M236.65002,12.1c0,0 -4.75,1.41889 -4.75,-1.075c0,-1.27553 1.26752,-2.5835 0.63842,-3.57217c-0.47349,-0.74412 -2.88842,-1.19899 -2.88842,-1.92783c0,-1.04726 -2.75,-2.39138 -2.75,-3.75c0,-3.05092 0,-6.175 0,-6.175l265,-9.8l-0.8,31c0,0 -185.80707,0.35556 -240.92545,0.31383c-3.24139,-0.00245 -5.51353,2.24545 -7.75,2.24375c-2.21217,-0.00167 -6.40026,-1.75295 -7.5,-1.75379c-2.94031,-0.00223 1.72544,-5.5038 1.72544,-5.5038z" fill="#4a4a4a" stroke="none" stroke-width="0" stroke-linecap="butt"/></g></g></svg>