<svg version="1.1" xmlns="http://www.w3.org/2000/svg" xmlns:xlink="http://www.w3.org/1999/xlink" width="31.61961" height="52.87144" viewBox="0,0,31.61961,52.87144"><g transform="translate(-222.94019,-154.91428)"><g data-paper-data="{&quot;isPaintingLayer&quot;:true}" fill-rule="nonzero" stroke-linejoin="miter" stroke-miterlimit="10" stroke-dasharray="" stroke-dashoffset="0" style="mix-blend-mode: normal"><path d="M247.44104,163.12551c0,4.53493 -19.84355,4.53493 -19.84355,0c0,-4.53493 4.44213,-8.21122 9.92178,-8.21122c5.47965,0 9.92178,3.67629 9.92178,8.21122z" fill="#ffef33" stroke="#c37b29" stroke-width="0" stroke-linecap="butt"/><path d="M229.15938,205.28573l8.45272,-13.86246l6.76218,13.86246" fill="none" stroke="#c37b29" stroke-width="5" stroke-linecap="round"/><path d="M225.44019,177.89891l12.17192,-4.39542l-0.33811,17.91977" fill="none" stroke="#c37b29" stroke-width="5" stroke-linecap="round"/><path d="M236.93589,173.16538l12.51003,5.07163" fill="none" stroke="#c37b29" stroke-width="5" stroke-linecap="round"/><path d="M245.0505,165.38887c0,3.73465 -3.17891,6.76218 -7.10029,6.76218c-3.92138,0 -7.10029,-3.02753 -7.10029,-6.76218c0,-3.73465 3.17891,-6.76218 7.10029,-6.76218c3.92138,0 7.10029,3.02753 7.10029,6.76218z" fill="#c37b29" stroke="#c37b29" stroke-width="5" stroke-linecap="butt"/><path d="M242.30938,166.81982c0.5977,0.5977 0,1.19539 0,1.19539l-0.59169,0.59169c-2.18298,2.11707 -5.0514,1.85486 -7.37166,0.06952c0,0 -0.66722,-0.51895 -0.14827,-1.18616c0.51895,-0.66722 1.18616,-0.14827 1.18616,-0.14827c1.5775,1.24314 3.64353,1.63146 5.13837,0.06952l0.59169,-0.59169c0,0 0.5977,-0.5977 1.19539,0z" fill="#ff3333" stroke="none" stroke-width="0.5" stroke-linecap="butt"/><path d="M235.11855,162.59947c0,-0.46683 0.37844,-0.84527 0.84527,-0.84527c0.46683,0 0.84527,0.37844 0.84527,0.84527c0,0.46683 -0.37844,0.84527 -0.84527,0.84527c-0.46683,0 -0.84527,-0.37844 -0.84527,-0.84527z" fill="#339cff" stroke="none" stroke-width="0.5" stroke-linecap="butt"/><path d="M240.02113,163.10663c0,-0.46683 0.37844,-0.84527 0.84527,-0.84527c0.46683,0 0.84527,0.37844 0.84527,0.84527c0,0.46683 -0.37844,0.84527 -0.84527,0.84527c-0.46683,0 -0.84527,-0.37844 -0.84527,-0.84527z" fill="#339cff" stroke="none" stroke-width="0.5" stroke-linecap="butt"/><path d="M236.89362,165.21981c0,-0.46683 0.37844,-0.84527 0.84527,-0.84527c0.46683,0 0.84527,0.37844 0.84527,0.84527c0,0.46683 -0.37844,0.84527 -0.84527,0.84527c-0.46683,0 -0.84527,-0.37844 -0.84527,-0.84527z" fill="#d0832c" stroke="none" stroke-width="0.5" stroke-linecap="butt"/><g fill="#6b6b6b" stroke="none" stroke-linecap="butt"><path d="M244.67013,188.99053c-0.36595,-0.31933 -0.42264,-0.95168 -0.42264,-1.32767c0,-1.96885 0.16905,-5.54216 0.16905,-6.58063c0,-0.55689 -0.06437,-0.75971 0.25358,-1.1545c0.31795,-0.39479 0.38037,-0.28862 0.84527,-0.28862c0.99278,0 4.72776,0.05773 6.8467,0.05773c0.85784,0 1.19765,-0.03158 1.60602,0.2309c0.40837,0.26248 0.50716,0.46302 0.50716,0.9236c0,1.05334 0.08453,5.25671 0.08453,7.15788c0,0.5666 -0.21848,0.72645 -0.59169,0.98132c-0.37321,0.25487 -0.79868,0.40407 -1.43696,0.40407c-1.16232,0 -3.03422,-0.05773 -4.90258,-0.05773c-0.61852,0 -2.5925,-0.02701 -2.95845,-0.34635z" stroke-width="0"/><path d="M252.74013,180.1554c-0.75604,0.25815 -1.13405,-0.25816 -1.13405,-0.25816l-0.16957,-0.31616c-0.07806,-0.53326 -0.08371,-2.07467 -1.35539,-2.13834c-0.32945,-0.0165 -1.07687,0.4005 -1.18832,0.47524c-1.12679,0.75556 -1.42317,1.31309 -1.2684,2.35638c0,0 0.08411,0.57438 -0.75697,0.63182c-0.84108,0.05744 -0.92519,-0.51694 -0.92519,-0.51694c-0.0525,-0.36288 -0.18645,-1.05336 -0.06956,-1.39187c0.38191,-1.10601 2.54435,-2.83157 4.37502,-2.70351c2.30726,0.16141 2.69709,1.98533 2.87097,3.17235l-0.00051,-0.08526c0,0 0.37802,0.51631 -0.37802,0.77446z" stroke-width="0.5"/></g></g></g></svg>