<svg version="1.1" xmlns="http://www.w3.org/2000/svg" xmlns:xlink="http://www.w3.org/1999/xlink" width="10.04893" height="18.375" viewBox="0,0,10.04893,18.375"><g transform="translate(-234.97553,-170.8125)"><g data-paper-data="{&quot;isPaintingLayer&quot;:true}" fill="#9a9a9a" fill-rule="nonzero" stroke="#000000" stroke-linecap="butt" stroke-linejoin="miter" stroke-miterlimit="10" stroke-dasharray="" stroke-dashoffset="0" style="mix-blend-mode: normal"><path d="M235.47553,186.26052v-14.94802h8.99087v14.94802z" stroke-width="1"/><path d="M244.52447,186.59147c0,1.15761 -1.98798,2.09603 -4.44028,2.09603c-2.4523,0 -4.44028,-0.93843 -4.44028,-2.09603c0,-1.15761 1.98798,-2.09603 4.44028,-2.09603c2.4523,0 4.44028,0.93843 4.44028,2.09603z" stroke-width="1"/><path d="M235.75751,186.56099c0,-1.43719 0,-14.2266 0,-14.2266h8.49407c0,0 0.04194,9.98131 0.03127,13.41368c-0.00143,0.45981 -0.08933,0.80209 -0.08933,0.9871c0,0.29454 -6.62594,0.54444 -7.99538,0.36125c-0.15261,-0.02041 -0.44063,-0.50854 -0.44063,-0.53544z" stroke-width="0"/></g></g></svg>