<svg version="1.1" xmlns="http://www.w3.org/2000/svg" xmlns:xlink="http://www.w3.org/1999/xlink" width="618.45956" height="570" viewBox="0,0,618.45956,570"><g transform="translate(108.45853,98.12023)"><g stroke="none" stroke-width="0" stroke-miterlimit="10"><path d="M45.81484,471.87977v-570h464.18619v570z" fill="#4a4a4a"/><path d="M106.1079,333.32178v-50.53585l-31.39031,-0.98095l0.98095,-55.91398l30.40936,0.98095v-167.9388h259.51494v40.94342l79.78369,4.57775l-0.65396,37.27599l-0.06968,1.56094l0.41185,31.46696l27.82893,0.48548l0.32959,42.34482l-28.40152,2.61791l0.19007,86.58449l-45.13383,1.51535l-1.34613,-167.29671l-33.91995,-1.6781l0.98095,193.99034z" fill="#6d6d6d"/><path d="M399.31512,308.66999v-29.68963h46.03726v29.68963z" fill="#222222"/><path d="M-108.45852,410.95336v-442.40841h184.74474v442.40841z" fill="#63ce1e"/><path d="M31.31512,25.66999v-25.68963h46.03726v25.68963z" fill="#0d4a69"/></g></g></svg>