<svg version="1.1" xmlns="http://www.w3.org/2000/svg" xmlns:xlink="http://www.w3.org/1999/xlink" width="74.56846" height="67.86547" viewBox="0,0,74.56846,67.86547"><g transform="translate(-201.72065,-146.06727)"><g data-paper-data="{&quot;isPaintingLayer&quot;:true}" fill-rule="nonzero" stroke="none" stroke-linecap="butt" stroke-linejoin="miter" stroke-miterlimit="10" stroke-dasharray="" stroke-dashoffset="0" style="mix-blend-mode: normal"><path d="M246.90439,200.3529c0,4.76956 -0.3699,9.25442 -1.02033,13.16002c-4.86429,0.01763 -9.73453,-0.27194 -14.59189,-0.04546c-0.64574,-3.89493 -1.01278,-8.36349 -1.01278,-13.11455c0,-15.12866 3.72163,-27.39285 8.3125,-27.39285c4.59087,0 8.3125,12.2642 8.3125,27.39285z" fill="#d1942c" stroke-width="NaN"/><path d="M252.76153,163.3529c0,7.87006 -6.18407,14.25 -13.8125,14.25c-7.62843,0 -13.8125,-6.37994 -13.8125,-14.25c0,-7.87006 6.18407,-14.25 13.8125,-14.25c7.62843,0 13.8125,6.37994 13.8125,14.25z" fill="#d1942c" stroke-width="NaN"/><path d="M228.12478,149.27278c8.41172,-5.17684 25.28563,-4.87491 27.88675,6.83013c0.7845,3.53026 -2.83604,4.2605 -5.49304,4.11107c-1.084,-0.06097 -1.90372,-2.79963 -2.00697,-3.79169c-0.0905,-0.86957 -5.53848,-3.14594 -6.07772,-3.12006c-3.31624,0.15915 -7.89137,-0.28985 -10.62318,2.2871c-0.97059,0.91557 -2.31631,3.11268 -3.26957,3.6574c-0.43488,0.73685 -1.23698,1.23117 -2.15454,1.23117c-1.20288,0 -2.20733,-0.84952 -2.44613,-1.98133c-2.52871,-3.17086 0.27535,-6.81806 4.18438,-9.2238z" fill="#ff6666" stroke-width="0.5"/><path d="M232.13653,159.8529c0,-0.69036 0.55964,-1.25 1.25,-1.25c0.69036,0 1.25,0.55964 1.25,1.25c0,0.69036 -0.55964,1.25 -1.25,1.25c-0.69036,0 -1.25,-0.55964 -1.25,-1.25z" fill="#8e5900" stroke-width="0.5"/><path d="M242.01153,159.6029c0,-0.69036 0.55964,-1.25 1.25,-1.25c0.69036,0 1.25,0.55964 1.25,1.25c0,0.69036 -0.55964,1.25 -1.25,1.25c-0.69036,0 -1.25,-0.55964 -1.25,-1.25z" fill="#8e5900" stroke-width="0.5"/><path d="M237.63653,163.6679c0,-0.79529 0.50368,-1.44 1.125,-1.44c0.62132,0 1.125,0.64471 1.125,1.44c0,0.79529 -0.50368,1.44 -1.125,1.44c-0.62132,0 -1.125,-0.64471 -1.125,-1.44z" fill="#8e5900" stroke-width="0.5"/><path d="M245.39541,166.59402c0.88388,0.88388 0,1.76777 0,1.76777l0.03118,-0.06551c-3.69553,5.45811 -8.62441,2.16693 -13.79006,2.18162c0,0 -1.25,0 -1.25,-1.25c0,-1.25 1.25,-1.25 1.25,-1.25c3.93767,0.00975 8.9687,3.12616 11.70994,-1.06838l0.28118,-0.31551c0,0 0.88388,-0.88388 1.76776,0z" fill="#ff6666" stroke-width="0.5"/><path d="M240.72206,183.92227c0.26828,-1.58799 5.29739,-2.0624 11.23282,-1.05963c5.93543,1.00277 10.52956,3.10299 10.26128,4.69098c-0.26828,1.58799 -5.29739,2.0624 -11.23282,1.05963c-5.93543,-1.00277 -10.52956,-3.10299 -10.26128,-4.69098z" data-paper-data="{&quot;index&quot;:null}" fill="#d1942c" stroke-width="NaN"/><path d="M256.48084,185.37918c0.68484,-1.45762 5.65664,-0.56419 11.10481,1.99555c5.44818,2.55974 9.30962,5.81646 8.62478,7.27408c-0.68484,1.45762 -5.65664,0.56419 -11.10481,-1.99555c-5.44818,-2.55974 -9.30962,-5.81646 -8.62478,-7.27408z" data-paper-data="{&quot;index&quot;:null}" fill="#d1942c" stroke-width="NaN"/><path d="M229.01666,188.11325c-5.93544,1.00277 -10.96454,0.52835 -11.23282,-1.05964c-0.26828,-1.58799 4.32584,-3.68821 10.26128,-4.69098c5.93544,-1.00277 10.96454,-0.52835 11.23282,1.05963c0.26828,1.58799 -4.32584,3.68822 -10.26128,4.69098z" data-paper-data="{&quot;index&quot;:null}" fill="#d1942c" stroke-width="NaN"/><path d="M214.89438,192.15326c-5.44818,2.55974 -10.41997,3.45318 -11.10481,1.99555c-0.68484,-1.45763 3.17659,-4.71435 8.62478,-7.27409c5.44818,-2.55974 10.41997,-3.45318 11.10482,-1.99555c0.68484,1.45763 -3.1766,4.71435 -8.62478,7.27409z" data-paper-data="{&quot;index&quot;:null}" fill="#d1942c" stroke-width="NaN"/><path d="M229.81234,213.93274v-34.6h18.8v34.6z" fill="#6c6c6c" stroke-width="0"/><path d="M224.61234,189.93274v-9.6h7.8v9.6z" fill="#6c6c6c" stroke-width="0"/><path d="M244.01234,189.93274v-9.6h7.8v9.6z" fill="#6c6c6c" stroke-width="0"/><path d="M201.72065,198.0587v-9.41087h6.10435v9.41087z" fill="#000000" stroke-width="0"/><path d="M206.04457,193.22609c0,0.84283 -0.62631,1.52609 -1.39891,1.52609c-0.7726,0 -1.39891,-0.68325 -1.39891,-1.52609c0,-0.84283 0.62631,-1.52609 1.39891,-1.52609c0.7726,0 1.39891,0.68325 1.39891,1.52609z" fill="#ff0000" stroke-width="0"/><path d="M208.3147,192.97654c-1.55168,0.72903 -2.96767,0.98349 -3.16272,0.56834c-0.19505,-0.41514 0.90471,-1.34268 2.45639,-2.07171c1.55168,-0.72903 2.96767,-0.98349 3.16272,-0.56834c0.19505,0.41514 -0.90472,1.34268 -2.45639,2.07171z" data-paper-data="{&quot;index&quot;:null}" fill="#d1942c" stroke-width="NaN"/></g></g></svg>