<svg version="1.1" xmlns="http://www.w3.org/2000/svg" xmlns:xlink="http://www.w3.org/1999/xlink" width="509.43268" height="570" viewBox="0,0,509.43268,570"><g transform="translate(5.97039,116)"><g data-paper-data="{&quot;isPaintingLayer&quot;:true}" fill-rule="nonzero" stroke-linejoin="miter" stroke-miterlimit="10" stroke-dasharray="" stroke-dashoffset="0" style="mix-blend-mode: normal"><path d="M-5.97039,454v-570h495.47044v570zM458.56571,195.76007c5.52285,0 10,-4.47715 10,-10c0,-5.52285 -4.47715,-10 -10,-10c-5.52285,0 -10,4.47715 -10,10c0,5.52285 4.47715,10 10,10z" fill="#4a4a4a" stroke="none" stroke-width="0" stroke-linecap="butt"/><path d="M22.66675,322.26952v-323.01952h50.75075v323.01952z" fill="#636363" stroke="none" stroke-width="0" stroke-linecap="butt"/><path d="M27.66675,327.26952v-55.18983h50.75076v55.18983z" fill="#636363" stroke="none" stroke-width="0" stroke-linecap="butt"/><path d="M137.21525,310.53948v-292.25643h319.9136v157.57948c-4.84209,0.69675 -8.56314,4.8626 -8.56314,9.89754c0,5.03494 3.72105,9.20079 8.56314,9.89754v114.88187z" fill="#6d6d6d" stroke="none" stroke-width="0" stroke-linecap="butt"/><path d="M71.43868,176.26185v-32.88831h68.76647v32.88831z" fill="#636363" stroke="none" stroke-width="0" stroke-linecap="butt"/><g><path d="M118.20386,178.27538v-35.87816h20.40933v35.87816z" fill="#101010" stroke="none" stroke-width="0" stroke-linecap="butt"/><path d="M137.10672,144.40755l0.11626,29.47498" fill="none" stroke="#ffffff" stroke-width="1" stroke-linecap="round"/><path d="M119.90069,173.38295l0.11626,-28.47582" fill="none" stroke="#ffffff" stroke-width="1" stroke-linecap="round"/><path d="M121.64458,172.63359l0.34877,-27.97625" fill="none" stroke="#ffffff" stroke-width="1" stroke-linecap="round"/><path d="M124.20224,145.65649l-0.23251,25.22859" fill="none" stroke="#ffffff" stroke-width="1" stroke-linecap="round"/><path d="M126.2948,173.13317l-0.11626,-2.74767l-0.11626,-24.97879" fill="none" stroke="#ffffff" stroke-width="1" stroke-linecap="round"/><path d="M128.1549,147.40501l0.23251,26.72731" fill="none" stroke="#ffffff" stroke-width="1" stroke-linecap="round"/><path d="M123.96965,173.88253l0.11626,-4.49618" fill="none" stroke="#ffffff" stroke-width="1" stroke-linecap="round"/><path d="M130.71256,145.65649l-0.58129,28.9754" fill="none" stroke="#ffffff" stroke-width="1" stroke-linecap="round"/><path d="M132.34017,146.65565l-0.23251,27.72646" fill="none" stroke="#ffffff" stroke-width="1" stroke-linecap="round"/><path d="M134.08399,146.65565l0.11626,26.72731" fill="none" stroke="#ffffff" stroke-width="1" stroke-linecap="round"/><path d="M135.47916,145.90628l0.23251,27.22688" fill="none" stroke="#ffffff" stroke-width="1" stroke-linecap="round"/><path d="M137.92049,148.40416l-19.53121,-0.49957" fill="none" stroke="#000000" stroke-width="1" stroke-linecap="round"/><path d="M137.80431,154.64886l-19.2987,-0.99915" fill="none" stroke="#000000" stroke-width="1" stroke-linecap="round"/><path d="M137.92049,160.39398l-17.6711,-0.24979l-1.27883,-0.49957" fill="none" stroke="#000000" stroke-width="1" stroke-linecap="round"/><path d="M118.15684,164.39059l20.9263,1.49873" fill="none" stroke="#000000" stroke-width="1" stroke-linecap="round"/><path d="M118.73806,169.38635l19.53121,1.49873" fill="none" stroke="#000000" stroke-width="1" stroke-linecap="round"/></g><path d="M73.27965,143.75h64.5" fill="none" stroke="#000000" stroke-width="2" stroke-linecap="round"/><path d="M206.26273,198.12945l120.47881,-0.45901l-5.2398,37.08866l-112.9788,1.43528z" fill="#8e4c00" stroke="none" stroke-width="0" stroke-linecap="butt"/><path d="M185.2044,250v-125.5h26.79568v125.5z" fill="#4a4a4a" stroke="none" stroke-width="0" stroke-linecap="butt"/><path d="M134.70433,250.5v-18h212.29568v18z" fill="#4a4a4a" stroke="none" stroke-width="0" stroke-linecap="butt"/><path d="M319.20439,249v-125.5h26.79569v125.5z" fill="#4a4a4a" stroke="none" stroke-width="0" stroke-linecap="butt"/><path d="M256.70439,80.5v-21.5h147.29569v21.5z" fill="#4a4a4a" stroke="none" stroke-width="0" stroke-linecap="butt"/><path d="M256.20439,80v-30h22.79568v30z" fill="#4a4a4a" stroke="none" stroke-width="0" stroke-linecap="butt"/><path d="M380.70445,80v-30h22.79568v30z" fill="#4a4a4a" stroke="none" stroke-width="0" stroke-linecap="butt"/><path d="M261.19525,179.64083c0,0 -0.7038,0.06529 -0.7038,-0.70255c0,-3.09988 -0.06544,-23.2908 -0.06544,-23.2908h24.85875v24.85875c0,0 -21.21371,0 -23.88678,0c-0.53921,0 -0.20273,-0.8654 -0.20273,-0.8654z" fill="#8e4c00" stroke="none" stroke-width="0" stroke-linecap="butt"/><path d="M261.73348,149.5875v-12.05657h24.85875v12.05657z" fill="#8e4c00" stroke="none" stroke-width="0" stroke-linecap="butt"/><path d="M266.13113,161.04842v-18.23693h3.66893v18.23693z" fill="#8e4c00" stroke="none" stroke-width="0" stroke-linecap="butt"/><path d="M278.03354,161.03153v-18.23693h3.66893v18.23693z" fill="#8e4c00" stroke="none" stroke-width="0" stroke-linecap="butt"/><path d="M285.486,192.98014l-3.95993,-17.80182l3.58139,-0.79666l3.95993,17.80182z" fill="#8e4c00" stroke="none" stroke-width="0" stroke-linecap="butt"/><path d="M264.38723,195.95727c0,0 -3.35415,-15.07857 -3.79282,-17.0506c-0.09208,-0.41393 0.55276,-0.75122 0.55276,-0.75122l2.86153,-0.79666l3.95993,17.80182z" fill="#8e4c00" stroke="none" stroke-width="0" stroke-linecap="butt"/><path d="M285.72722,174.38879l-3.95993,-17.80182l3.58139,-0.86211l3.95993,17.86726z" fill="#8e4c00" stroke="none" stroke-width="0" stroke-linecap="butt"/><path d="M245.24964,224.28702v-4.30928h51.71135v4.30928z" fill="#000000" stroke="none" stroke-width="0" stroke-linecap="butt"/><path d="M266.07777,229.31451v-7.18213h10.05499v7.18213z" fill="#000000" stroke="none" stroke-width="0" stroke-linecap="butt"/><path d="M254.80681,214.23204v-9.33677h34.96994v9.33677z" fill="#000000" stroke="none" stroke-width="0" stroke-linecap="butt"/><path d="M228.01253,219.97774v-15.08248h15.80069v15.08248z" fill="#cccccc" stroke="none" stroke-width="0" stroke-linecap="butt"/><path d="M233.75823,214.23204v-5.74571h2.87285v5.74571z" fill="#000000" stroke="none" stroke-width="0" stroke-linecap="butt"/><g stroke-width="1.5" stroke-linecap="butt"><path d="M313.84693,213.61398c0,2.67389 -2.56173,4.8415 -5.72178,4.8415c-3.16005,0 -5.72178,-2.16762 -5.72178,-4.8415c0,-2.67389 2.56173,-4.8415 5.72178,-4.8415c3.16005,0 5.72178,2.16762 5.72178,4.8415z" fill="#ffffff" stroke="#000000"/><path d="M311.93719,213.56816c0,1.8166 -1.7404,3.28924 -3.88729,3.28924c-2.14689,0 -3.88729,-1.47264 -3.88729,-3.28924c0,-1.8166 1.74039,-3.28924 3.88729,-3.28924c2.14689,0 3.88729,1.47264 3.88729,3.28924z" fill="#ffffff" stroke="#000000"/><path d="M312.61091,210.41765c-0.26264,-0.52529 0.26264,-0.78794 0.26264,-0.78794c0.55084,-0.27356 2.04541,-1.67365 2.64167,-1.47134c2.15866,0.73242 -1.3194,3.74548 -1.3194,3.74548c0,0 -0.48669,0.16223 -0.70195,-0.27144c-0.13572,0.08214 -0.32817,0.12382 -0.56961,-0.01415c-0.50991,-0.29138 -0.21853,-0.80129 -0.21853,-0.80129c0.0328,-0.05696 0.0647,-0.11172 0.09599,-0.16442c-0.07023,-0.05054 -0.1362,-0.12569 -0.19081,-0.23491z" fill="#000000" stroke="none"/></g><path d="M420.88041,204.39378v-40.44406h82.58188c0,0 0,10.21129 0,16.13993c0,7.27518 0,24.30413 0,24.30413z" fill="#6d6d6d" stroke="none" stroke-width="0" stroke-linecap="butt"/><g stroke="none" stroke-width="0" stroke-linecap="butt"><path d="M443.2089,31.722l6.50244,-8.24428l2.35551,1.85784l-6.50244,8.24428z" fill="#9a9a9a"/><path d="M437.09077,44.72704c-0.59853,0.75887 -1.83563,0.78102 -2.76313,0.04947c-0.9275,-0.73154 -1.19419,-1.93975 -0.59565,-2.69862c0.59853,-0.75887 1.83564,-0.78101 2.76313,-0.04947c0.9275,0.73154 1.19419,1.93975 0.59565,2.69862z" fill="#000000"/><path d="M432.96862,41.47582l10.99223,-13.93677l5.2999,4.18014l-10.99223,13.93677z" fill="#9a9a9a"/><path d="M457.0239,25.10606c-1.53909,1.95137 -4.72019,2.00833 -7.1052,0.12722c-2.38501,-1.88111 -3.07076,-4.98794 -1.53167,-6.93931c1.53909,-1.95137 4.72019,-2.00833 7.1052,-0.12722c2.38501,1.88111 3.07076,4.98794 1.53167,6.93931z" fill="#9a9a9a"/></g><g stroke="none" stroke-width="0" stroke-linecap="butt"><path d="M444.52269,296.43217l7.46518,7.38384l-2.10967,2.13291l-7.46517,-7.38384z" fill="#9a9a9a"/><path d="M432.28364,288.89771c-0.68715,-0.67967 -0.57078,-1.91147 0.25992,-2.75133c0.83069,-0.83985 2.06116,-0.96971 2.74831,-0.29004c0.68715,0.67967 0.57077,1.91147 -0.25992,2.75132c-0.83069,0.83985 -2.06116,0.96971 -2.74831,0.29005z" fill="#000000"/><path d="M435.97556,285.16511l12.61971,12.48221l-4.74675,4.79904l-12.61971,-12.4822z" fill="#9a9a9a"/><path d="M449.55176,310.90053c-1.76696,-1.74771 -1.46773,-4.91521 0.66837,-7.07483c2.13609,-2.15962 5.30013,-2.49354 7.06709,-0.74583c1.76696,1.74771 1.46773,4.91521 -0.66836,7.07483c-2.13609,2.15962 -5.30014,2.49354 -7.06709,0.74583z" fill="#9a9a9a"/></g><path d="M136.27964,176.75h-62l-30.25004,-0.625l0.5,-32l29.5,-0.125h63.25l-39,0.375l-0.25,32.25l-10.25,0.25l-0.75,-33h-10l0.75,33.25" fill="none" stroke="#000000" stroke-width="2" stroke-linecap="round"/><path d="M136.60341,139.96926l-0.9985,-121.88067l321.81982,0.07016c0,0 -0.05607,95.56649 -0.0844,143.84841c-0.0025,4.26317 -0.00522,-4.10234 -0.00811,0.82053" fill="none" stroke="#000000" stroke-width="2.5" stroke-linecap="round"/><path d="M457.32057,204.73214c-0.00201,3.42586 -0.00405,-2.13598 -0.00612,1.38806c-0.0284,48.3967 -0.06089,103.7807 -0.06089,103.7807l-321.15165,-0.02057l1.06555,-132.13669" fill="none" stroke="#000000" stroke-width="2.5" stroke-linecap="round"/><g stroke="none" stroke-width="0" stroke-linecap="butt"><path d="M144.31551,32.23613l-5.78146,-8.76497l2.50428,-1.65185l5.78145,8.76497z" fill="#9a9a9a"/><path d="M154.73709,42.13325c0.53217,0.8068 0.1642,1.9881 -0.82188,2.63854c-0.98607,0.65043 -2.21686,0.52367 -2.74903,-0.28313c-0.53217,-0.8068 -0.16419,-1.9881 0.82188,-2.63853c0.98607,-0.65043 2.21686,-0.52367 2.74903,0.28312z" fill="#000000"/><path d="M150.35459,45.02399l-9.77342,-14.81698l5.63462,-3.71665l9.77342,14.81697z" fill="#9a9a9a"/><path d="M142.37918,17.04153c1.36843,2.07461 0.42224,5.11226 -2.11341,6.78479c-2.53564,1.67253 -5.70051,1.34658 -7.06895,-0.72803c-1.36843,-2.07461 -0.42224,-5.11226 2.1134,-6.7848c2.53564,-1.67253 5.70052,-1.34658 7.06895,0.72803z" fill="#9a9a9a"/></g></g></g></svg>