<svg version="1.1" xmlns="http://www.w3.org/2000/svg" xmlns:xlink="http://www.w3.org/1999/xlink" width="22.76962" height="21.28937" viewBox="0,0,22.76962,21.28937"><g transform="translate(-228.61519,-169.35532)"><g stroke="none" stroke-miterlimit="10"><path d="M240.42821,190.63464c-6.28313,0.25299 -11.56832,-4.30321 -11.80481,-10.17656c-0.23649,-5.87335 4.66528,-10.83973 10.94839,-11.09272c6.28313,-0.25299 11.56832,4.30321 11.80481,10.17656c0.23649,5.87335 -4.66528,10.83973 -10.94839,11.09272z" fill="#00ac20" stroke-width="0"/><path d="M248.19359,182.43485c0.34147,-0.01375 0.62944,0.25192 0.64318,0.59339c0.01375,0.34147 -0.25192,0.62944 -0.59339,0.64318c-0.34147,0.01375 -0.62944,-0.25192 -0.64318,-0.59339c-0.01375,-0.34147 0.25192,-0.62944 0.59339,-0.64318z" fill="#080000" stroke-width="0.5"/><path d="M248.14132,177.43196c0.34147,-0.01375 0.62944,0.25192 0.64318,0.59339c0.01375,0.34147 -0.25192,0.62944 -0.59339,0.64318c-0.34147,0.01375 -0.62944,-0.25192 -0.64318,-0.59339c-0.01375,-0.34147 0.25192,-0.62944 0.59339,-0.64318z" fill="#080000" stroke-width="0.5"/><path d="M249.72821,183.33676c-0.18375,-0.16951 -0.01422,-0.35326 -0.01422,-0.35326l0.17907,-0.18423c0.58165,-2.19745 -0.38024,-3.4396 -0.48205,-5.52031c0,0 -0.01006,-0.2498 0.23974,-0.25986c0.2498,-0.01006 0.25986,0.23974 0.25986,0.23974c0.06368,2.17757 1.1309,3.46384 0.418,5.78597l-0.24714,0.27774c0,0 -0.16951,0.18375 -0.35326,0.01422z" fill="#080000" stroke-width="0.5"/></g></g></svg>