<svg version="1.1" xmlns="http://www.w3.org/2000/svg" xmlns:xlink="http://www.w3.org/1999/xlink" width="123.04506" height="73.93416" viewBox="0,0,123.04506,73.93416"><g transform="translate(-128.08076,-142.50795)"><g stroke-miterlimit="10"><path d="M128.08076,216.44211l0.52952,-73.93416l113.30412,33.70554l0.28064,9.19023z" fill-opacity="0.40392" fill="#b0b0b0" stroke="none" stroke-width="0"/><path d="M239.74,168.98847c6.28822,0 11.38582,4.76515 11.38582,10.64326c0,5.87811 -5.09761,10.64326 -11.38582,10.64326c-6.28822,0 -11.38582,-4.76515 -11.38582,-10.64326c0,-5.87811 5.09761,-10.64326 11.38582,-10.64326z" fill="#00c726" stroke="none" stroke-width="0"/><path d="M233.19164,187.40749c-0.40586,0.71026 -1.87643,0.01326 -2.43744,0.00901c-0.95971,-0.00728 -1.93095,0.08135 -2.87829,-0.07238c-1.68495,-0.27343 -3.45231,0.21992 -5.12413,-0.14665c-1.5651,-0.34317 -2.93495,-1.82444 -4.22537,-2.71062c-0.54503,-0.3743 -1.736,-0.70318 -2.06584,-1.35424c-0.96972,-1.91412 1.35121,-3.35265 2.97985,-2.53833c0.87547,0.43773 3.40346,2.9521 4.26361,2.98568c1.36233,0.05318 2.72692,-0.02253 4.09011,0c1.7882,0.02955 3.20819,-0.12327 4.3841,0.37262c0.7258,0.30607 1.3586,0.85928 1.92761,1.85504z" fill="#00c726" stroke="none" stroke-width="0.5"/><path d="M231.651,176.8692c-0.34175,0 -0.61879,-0.27704 -0.61879,-0.61879c0,-0.34175 0.27704,-0.61879 0.61879,-0.61879c0.34175,0 0.61879,0.27704 0.61879,0.61879c0,0.34175 -0.27704,0.61879 -0.61879,0.61879z" fill="#080000" stroke="none" stroke-width="0.5"/><path d="M231.50195,181.87014c-0.34175,0 -0.61879,-0.27704 -0.61879,-0.61879c0,-0.34175 0.27704,-0.61879 0.61879,-0.61879c0.34175,0 0.61879,0.27704 0.61879,0.61879c0,0.34175 -0.27704,0.61879 -0.61879,0.61879z" fill="#080000" stroke="none" stroke-width="0.5"/><path d="M230.15391,175.90627c0.17678,0.17677 0,0.35355 0,0.35355l-0.18634,0.17688c-0.66959,2.17227 0.24155,3.45211 0.25956,5.53523c0,0 0,0.25 -0.25,0.25c-0.25,0 -0.25,-0.25 -0.25,-0.25c0.02398,-2.17837 -0.99062,-3.50653 -0.18488,-5.7981l0.25811,-0.26757c0,0 0.17677,-0.17678 0.35355,0z" fill="#080000" stroke="none" stroke-width="0.5"/><path d="M206.26316,183.08103v-3.44262h11.63369v3.44262z" fill="#201111" stroke="none" stroke-width="0"/><path d="M210.29934,181.77521v-1.0684h0.11871v1.0684z" fill="#000000" stroke="#bababa" stroke-width="1"/></g></g></svg>