<svg version="1.1" xmlns="http://www.w3.org/2000/svg" xmlns:xlink="http://www.w3.org/1999/xlink" width="22.77164" height="21.28652" viewBox="0,0,22.77164,21.28652"><g transform="translate(-228.61418,-169.35674)"><g data-paper-data="{&quot;isPaintingLayer&quot;:true}" fill-rule="nonzero" stroke="none" stroke-linecap="butt" stroke-linejoin="miter" stroke-miterlimit="10" stroke-dasharray="" stroke-dashoffset="0" style="mix-blend-mode: normal"><path d="M251.38582,180c0,5.87811 -5.0976,10.64326 -11.38582,10.64326c-6.28821,0 -11.38582,-4.76515 -11.38582,-10.64326c0,-5.87811 5.0976,-10.64326 11.38582,-10.64326c6.28821,0 11.38582,4.76515 11.38582,10.64326z" fill="#ff0000" stroke-width="0"/><path d="M247.59297,176.36868c0,-0.34175 0.27704,-0.61879 0.61879,-0.61879c0.34175,0 0.61879,0.27704 0.61879,0.61879c0,0.34175 -0.27704,0.61879 -0.61879,0.61879c-0.34175,0 -0.61879,-0.27704 -0.61879,-0.61879z" fill="#000000" stroke-width="0.5"/><path d="M247.74202,181.36962c0,-0.34175 0.27704,-0.61879 0.61879,-0.61879c0.34175,0 0.61879,0.27704 0.61879,0.61879c0,0.34175 -0.27704,0.61879 -0.61879,0.61879c-0.34175,0 -0.61879,-0.27704 -0.61879,-0.61879z" fill="#000000" stroke-width="0.5"/><path d="M249.70885,176.02453c0.17678,-0.17678 0.35355,0 0.35355,0l0.25811,0.26757c0.80574,2.29157 -0.20886,3.61973 -0.18488,5.7981c0,0 0,0.25 -0.25,0.25c-0.25,0 -0.25,-0.25 -0.25,-0.25c0.01801,-2.08312 0.92915,-3.36296 0.25956,-5.53523l-0.18634,-0.17688c0,0 -0.17678,-0.17678 0,-0.35355z" fill="#000000" stroke-width="0.5"/></g></g></svg>