<svg version="1.1" xmlns="http://www.w3.org/2000/svg" xmlns:xlink="http://www.w3.org/1999/xlink" width="531" height="303.46277" viewBox="0,0,531,303.46277"><g transform="translate(25.5,-65.71581)"><g data-paper-data="{&quot;isPaintingLayer&quot;:true}" fill-rule="nonzero" stroke="none" stroke-width="0" stroke-linecap="butt" stroke-linejoin="miter" stroke-miterlimit="10" stroke-dasharray="" stroke-dashoffset="0" style="mix-blend-mode: normal"><path d="M-3.49056,262.17634v-16.4497h489.79599v16.4497z" fill="#434343"/><path d="M-5.29009,121.23947v-27.58252h492.28667v27.58252z" fill="#434343"/><path d="M216.54072,95.11848v-22.5h4.5v22.5z" fill="#434343"/><path d="M218.40745,74.71695c-4.32341,3.43656 -8.66399,5.17099 -9.69496,3.87397c-1.03097,-1.29702 1.63809,-5.13435 5.9615,-8.57091c4.32341,-3.43656 8.66399,-5.17099 9.69496,-3.87397c1.03097,1.29702 -1.63809,5.13435 -5.9615,8.57091z" fill="#434343"/><path d="M-4.011,182.16159v-16.4497h491.45213v16.4497z" fill="#434343"/><path d="M70.54652,314.68371v-56.7489h36.01599v56.7489z" fill="#434343"/><path d="M224.59835,316.37145v-56.7489h36.01599v56.7489z" fill="#434343"/><path d="M360.43273,313.64283v-56.7489h24.97511v56.7489z" fill="#434343"/><path d="M68.36995,245.70984v-72.20613h36.01599v72.20613z" fill="#434343"/><path d="M222.42178,251.81393v-78.27861h36.01599v78.27861z" fill="#434343"/><path d="M358.25616,250.1894v-76.07043h24.97511v76.07043z" fill="#434343"/><path d="M63.98521,173.42371v-56.7489h36.01599v56.7489z" fill="#434343"/><path d="M218.03703,175.11144v-56.7489h36.01599v56.7489z" fill="#434343"/><path d="M353.87142,172.38283v-56.7489h24.97511v56.7489z" fill="#434343"/><path d="M464.31178,315.94582v-210.21708h24.97511v210.21708z" fill="#434343"/><path d="M-25.31947,315.97743v-210.21708h24.97511v210.21708z" fill="#434343"/><path d="M239.83037,286.69192l7.42741,-17.43778l109.57416,46.67176l-7.42741,17.43778z" fill="#434343"/><path d="M261.02451,257.42293l-7.68787,-17.32453l108.86249,-48.30848l7.68787,17.32453z" fill="#434343"/><path d="M244.21087,118.07059l9.45864,-18.90312l118.78193,59.43547l-9.45865,18.90312z" fill="#434343"/><path d="M237.5158,94.6158v-23.73788h22.6338v23.73788z" fill="#434343"/><path d="M-25.5,369.17858v-56.89286h531v56.89286z" fill="#505050"/></g></g></svg>