<svg version="1.1" xmlns="http://www.w3.org/2000/svg" xmlns:xlink="http://www.w3.org/1999/xlink" width="26.06255" height="43.42144" viewBox="0,0,26.06255,43.42144"><g transform="translate(-225.71872,-158.98928)"><g data-paper-data="{&quot;isPaintingLayer&quot;:true}" fill-rule="nonzero" stroke-linejoin="miter" stroke-miterlimit="10" stroke-dasharray="" stroke-dashoffset="0" style="mix-blend-mode: normal"><path d="M247.70239,165.57615c0,3.63782 -18.4324,3.63782 -18.4324,0c0,-3.63782 4.12623,-6.58686 9.2162,-6.58686c5.08997,0 9.2162,2.94904 9.2162,6.58686z" fill="#b16600" stroke="#c37b29" stroke-width="0" stroke-linecap="butt"/><path d="M245.10239,166.67615c0,3.63782 -13.8324,3.63782 -13.8324,0c0,-3.63782 3.09649,-6.58686 6.9162,-6.58686c3.81971,0 6.9162,2.94904 6.9162,6.58686z" fill="#b16600" stroke="#c37b29" stroke-width="0" stroke-linecap="butt"/><path d="M231.20219,199.91073l6.78059,-11.12017l5.42447,11.12017" fill="none" stroke="#c37b29" stroke-width="5" stroke-linecap="round"/><path d="M228.21873,177.94162l9.76405,-3.52591l-0.27122,14.37485" fill="none" stroke="#c37b29" stroke-width="5" stroke-linecap="round"/><path d="M237.44033,174.14449l10.03527,4.06835" fill="none" stroke="#c37b29" stroke-width="5" stroke-linecap="round"/><path d="M243.94969,167.90635c0,2.99585 -2.55005,5.42447 -5.69569,5.42447c-3.14565,0 -5.69569,-2.42862 -5.69569,-5.42447c0,-2.99585 2.55005,-5.42447 5.69569,-5.42447c3.14565,0 5.69569,2.42862 5.69569,5.42447z" fill="#c37b29" stroke="#c37b29" stroke-width="5" stroke-linecap="butt"/><path d="M241.75082,169.05423c0.47946,0.47946 0,0.95892 0,0.95892l-0.47464,0.47464c-1.75114,1.69827 -4.05213,1.48793 -5.91338,0.05577c0,0 -0.53523,-0.41629 -0.11894,-0.95151c0.41629,-0.53523 0.95151,-0.11894 0.95151,-0.11894c1.26544,0.99722 2.92276,1.30872 4.12189,0.05577l0.47464,-0.47464c0,0 0.47946,-0.47946 0.95892,0z" fill="#ff3333" stroke="none" stroke-width="0.5" stroke-linecap="butt"/><path d="M237.40642,167.77073c0,-0.37448 0.30358,-0.67806 0.67806,-0.67806c0.37448,0 0.67806,0.30358 0.67806,0.67806c0,0.37448 -0.30358,0.67806 -0.67806,0.67806c-0.37448,0 -0.67806,-0.30358 -0.67806,-0.67806z" fill="#d0832c" stroke="none" stroke-width="0.5" stroke-linecap="butt"/><path d="M235.64347,165.0585c0,-0.37448 0.30358,-0.67806 0.67806,-0.67806c0.37448,0 0.67806,0.30358 0.67806,0.67806c0,0.37448 -0.30358,0.67806 -0.67806,0.67806c-0.37448,0 -0.67806,-0.30358 -0.67806,-0.67806z" fill="#33d6ff" stroke="none" stroke-width="0.5" stroke-linecap="butt"/><path d="M239.84744,164.78727c0,-0.37448 0.30358,-0.67806 0.67806,-0.67806c0.37448,0 0.67806,0.30358 0.67806,0.67806c0,0.37448 -0.30358,0.67806 -0.67806,0.67806c-0.37448,0 -0.67806,-0.30358 -0.67806,-0.67806z" fill="#33d6ff" stroke="none" stroke-width="0.5" stroke-linecap="butt"/><g fill="#6b6b6b" stroke="none" stroke-linecap="butt"><path d="M243.84798,187.61303c-0.29356,-0.28755 -0.33903,-0.85696 -0.33903,-1.19552c0,-1.77288 0.13561,-4.99053 0.13561,-5.92564c0,-0.50146 -0.05163,-0.6841 0.20342,-1.03959c0.25505,-0.35549 0.30513,-0.2599 0.67806,-0.2599c0.79639,0 3.79251,0.05198 5.49228,0.05198c0.68814,0 0.96073,-0.02844 1.28831,0.20792c0.32758,0.23635 0.40684,0.41693 0.40684,0.83167c0,0.9485 0.06781,4.73349 0.06781,6.44543c0,0.51021 -0.17526,0.65414 -0.47464,0.88365c-0.29938,0.2295 -0.64068,0.36385 -1.1527,0.36385c-0.93239,0 -2.43399,-0.05198 -3.93274,-0.05198c-0.49617,0 -2.07965,-0.02433 -2.37321,-0.31187z" stroke-width="0"/><path d="M250.32156,179.6573c-0.60647,0.23246 -0.90971,-0.23246 -0.90971,-0.23246l-0.13602,-0.2847c-0.06262,-0.48019 -0.06715,-1.86817 -1.08727,-1.92551c-0.26428,-0.01485 -0.86384,0.36064 -0.95325,0.42794c-0.90388,0.68035 -1.14164,1.18239 -1.01748,2.12184c0,0 0.06747,0.51721 -0.60722,0.56893c-0.67469,0.05172 -0.74216,-0.46549 -0.74216,-0.46549c-0.04212,-0.32676 -0.14957,-0.94852 -0.0558,-1.25333c0.30636,-0.99593 2.04103,-2.54974 3.50955,-2.43442c1.85083,0.14534 2.16355,1.78773 2.30303,2.85659l-0.00041,-0.07678c0,0 0.30324,0.46492 -0.30324,0.69738z" stroke-width="0.5"/></g></g></g></svg>