<svg version="1.1" xmlns="http://www.w3.org/2000/svg" xmlns:xlink="http://www.w3.org/1999/xlink" width="30.20393" height="50.63526" viewBox="0,0,30.20393,50.63526"><g transform="translate(-224.55389,-154.22754)"><g data-paper-data="{&quot;isPaintingLayer&quot;:true}" fill-rule="nonzero" stroke-linejoin="miter" stroke-miterlimit="10" stroke-dasharray="" stroke-dashoffset="0" style="mix-blend-mode: normal"><path d="M226.66426,187.09369l-0.86037,16.51911" fill="none" stroke="#000000" stroke-width="2.5" stroke-linecap="round"/><path d="M241.46263,203.09658v-17.37948l-14.79837,0.17207l-0.34415,-14.6263" fill="none" stroke="#000000" stroke-width="2.5" stroke-linecap="round"/><path d="M248.17352,197.93435l-3.61356,-15.31459l-11.35689,-0.34415l-0.6883,-11.70104l-0.51622,-6.02259l11.01274,7.57126" fill="none" stroke="#000000" stroke-width="2.5" stroke-linecap="round"/><path d="M244.90411,182.10354l8.6037,12.21726" fill="none" stroke="#000000" stroke-width="2.5" stroke-linecap="round"/><path d="M231.99856,166.96102l7.91541,8.94785" fill="none" stroke="#000000" stroke-width="2.5" stroke-linecap="round"/><path d="M236.9887,159.38976c0,2.85102 -2.65789,5.16222 -5.93656,5.16222c-3.27867,0 -5.93656,-2.31121 -5.93656,-5.16222c0,-2.85102 2.65789,-5.16222 5.93656,-5.16222c3.27867,0 5.93656,2.31121 5.93656,5.16222z" fill="#000000" stroke="none" stroke-width="0" stroke-linecap="butt"/></g></g></svg>