<svg version="1.1" xmlns="http://www.w3.org/2000/svg" xmlns:xlink="http://www.w3.org/1999/xlink" width="83.91667" height="27.21622" viewBox="0,0,83.91667,27.21622"><g transform="translate(-198.04167,-166.39189)"><g data-paper-data="{&quot;isPaintingLayer&quot;:true}" fill-rule="nonzero" stroke="none" stroke-linecap="butt" stroke-linejoin="miter" stroke-miterlimit="10" stroke-dasharray="" stroke-dashoffset="0" style="mix-blend-mode: normal"><path d="M199.48495,171.54648v-2.88657h52.3706v2.88657z" fill="#4c4c4c" stroke-width="0"/><path d="M200.1035,191.34009v-2.88657h52.3706v2.88657z" fill="#4c4c4c" stroke-width="0"/><path d="M198.04167,193.40192v-27.01003h8.24734v27.01003z" fill="#535353" stroke-width="0"/><path d="M245.67005,193.60811v-27.01003h36.28829v27.01003z" fill="#535353" stroke-width="0"/><path d="M200.72205,182.88657v-7.21642h52.3706v7.21642z" fill="#535353" stroke-width="0"/><path d="M239.07217,180.41237c0,7.17393 -6.08931,12.98956 -13.60083,12.98956c-7.51153,0 -13.60083,-5.81563 -13.60083,-12.98956c0,-7.17393 6.08931,-12.98956 13.60083,-12.98956c7.51153,0 13.60083,5.81563 13.60083,12.98956z" fill="#535353" stroke-width="0"/><path d="M225.46407,193.40192c-0.41237,0 -0.41237,-0.41237 -0.41237,-0.41237c0,-0.4811 0,-1.37455 0,-1.85565c0,-3.56503 -0.20618,-7.12285 -0.20618,-10.72154c0,-4.26112 0,-8.52226 0,-12.78337c0,0 0,-0.41237 0.41237,-0.41237c0.41237,0 0.41237,0.41237 0.41237,0.41237c0,4.26112 0,8.52226 0,12.78337c0,3.59904 0.20618,7.15582 0.20618,10.72154c0,0.4811 0,0.96218 0,1.44328v0.41237c0,0 0,0.41237 -0.41237,0.41237z" fill="#000000" stroke-width="0.5"/><text transform="translate(247.32964,173.78621) scale(0.17491,0.17491)" font-size="40" xml:space="preserve" fill="#000000" fill-rule="nonzero" stroke="none" stroke-width="1" stroke-linecap="butt" stroke-linejoin="miter" stroke-miterlimit="10" stroke-dasharray="" stroke-dashoffset="0" font-family="Handwriting" font-weight="normal" text-anchor="start" style="mix-blend-mode: normal"><tspan x="0" dy="0">Stop button</tspan></text><path d="M272.5337,184.9706c0,4.14406 -3.83092,7.50349 -8.55661,7.50349c-4.72569,0 -8.55661,-3.35942 -8.55661,-7.50349c0,-4.14406 3.83092,-7.50349 8.55661,-7.50349c4.72569,0 8.55661,3.35942 8.55661,7.50349z" fill="#03c500" stroke-width="0"/></g></g></svg>