<svg version="1.1" xmlns="http://www.w3.org/2000/svg" xmlns:xlink="http://www.w3.org/1999/xlink" width="23.59528" height="44.67144" viewBox="0,0,23.59528,44.67144"><g transform="translate(-226.95236,-158.61428)"><g data-paper-data="{&quot;isPaintingLayer&quot;:true}" fill-rule="nonzero" stroke-linejoin="miter" stroke-miterlimit="10" stroke-dasharray="" stroke-dashoffset="0" style="mix-blend-mode: normal"><path d="M245.92376,165.78844c0,3.96218 -15.60408,3.96218 -15.60408,0c0,-3.96218 3.49309,-7.17416 7.80203,-7.17416c4.30894,0 7.80203,3.21199 7.80203,7.17416z" fill="#b16600" stroke="#c37b29" stroke-width="0" stroke-linecap="butt"/><path d="M232.0271,200.78572l5.85167,-11.39542l4.68134,11.39542" fill="none" stroke="#c37b29" stroke-width="5" stroke-linecap="round"/><path d="M229.45236,178.27282l8.4264,-3.61318l-0.23407,14.73066" fill="none" stroke="#c37b29" stroke-width="5" stroke-linecap="round"/><path d="M246.07111,178.55076l-8.66047,-4.16906" fill="none" stroke="#c37b29" stroke-width="5" stroke-linecap="round"/><path d="M243.02823,167.98915c0,3.07 -2.2007,5.55874 -4.9154,5.55874c-2.7147,0 -4.9154,-2.48873 -4.9154,-5.55874c0,-3.07 2.2007,-5.55874 4.9154,-5.55874c2.7147,0 4.9154,2.48873 4.9154,5.55874z" fill="#c37b29" stroke="#c37b29" stroke-width="5" stroke-linecap="butt"/><path d="M241.13061,169.16544c0.41377,0.49132 0,0.98265 0,0.98265l-0.40961,0.48639c-1.51124,1.74031 -3.497,1.52476 -5.10327,0.05715c0,0 -0.4619,-0.42659 -0.10265,-0.97506c0.35926,-0.54847 0.82116,-0.12188 0.82116,-0.12188c1.09208,1.0219 2.52235,1.34111 3.5572,0.05715l0.40961,-0.48639c0,0 0.41377,-0.49132 0.82755,0z" fill="#ff3333" stroke="none" stroke-width="0.5" stroke-linecap="butt"/><path d="M237.38138,167.85018c0,-0.38375 0.26199,-0.69484 0.58516,-0.69484c0.32318,0 0.58516,0.31109 0.58516,0.69484c0,0.38375 -0.26199,0.69484 -0.58516,0.69484c-0.32318,0 -0.58516,-0.31109 -0.58516,-0.69484z" fill="#d0832c" stroke="none" stroke-width="0.5" stroke-linecap="butt"/><path d="M235.74291,165.27927c0,-0.38375 0.26199,-0.69484 0.58516,-0.69484c0.32318,0 0.58516,0.31109 0.58516,0.69484c0,0.38375 -0.26199,0.69484 -0.58516,0.69484c-0.32318,0 -0.58516,-0.31109 -0.58516,-0.69484z" fill="#33ff4d" stroke="none" stroke-width="0.5" stroke-linecap="butt"/><path d="M239.01984,165.62669c0,-0.38375 0.26199,-0.69484 0.58516,-0.69484c0.32318,0 0.58516,0.31109 0.58516,0.69484c0,0.38375 -0.26199,0.69484 -0.58516,0.69484c-0.32318,0 -0.58516,-0.31109 -0.58516,-0.69484z" fill="#33ff4d" stroke="none" stroke-width="0.5" stroke-linecap="butt"/><g stroke="none" stroke-linecap="butt"><path d="M243.0575,192.81993v-10.708h7.022v10.708z" fill="#00b5ff" stroke-width="0"/><path d="M243.81821,192.59477c0,0.37307 -0.32749,0.67551 -0.73146,0.67551c-0.40398,0 -0.73146,-0.30243 -0.73146,-0.67551c0,-0.37307 0.32749,-0.67551 0.73146,-0.67551c0.40398,0 0.73146,0.30243 0.73146,0.67551z" fill="#000000" stroke-width="0"/><path d="M250.54764,192.71986c0,0.38689 -0.31438,0.70053 -0.7022,0.70053c-0.38781,0 -0.7022,-0.31363 -0.7022,-0.70053c0,-0.38689 0.31438,-0.70053 0.7022,-0.70053c0.38781,0 0.7022,0.31363 0.7022,0.70053z" fill="#000000" stroke-width="0"/><path d="M248.08464,178.07255c-0.07448,0.44581 -0.59584,0.38213 -0.59584,0.38213l-0.33514,-0.04551c-0.00039,0 -0.00077,0 -0.00116,0c-0.00018,1.29899 0.05968,2.59461 0.05968,3.90292c0,0 0,0.15011 -0.17555,0.15011c-0.17555,0 -0.17555,-0.15011 -0.17555,-0.15011c0,-1.30542 -0.03842,-2.60628 -0.05508,-3.90292c-0.33458,0 -0.66915,0 -1.00373,0c-0.02248,0.55126 -0.10063,1.11938 -0.1105,1.6857c0.05749,0.04432 0.05749,0.11564 0.05749,0.11564c0,0.66716 0,1.43441 0,2.10157c0,0 0,0.15011 -0.17555,0.15011c-0.17555,0 -0.17555,-0.15011 -0.17555,-0.15011c0,-0.66172 0,-1.32343 0,-1.98514c-0.05852,-0.04426 -0.05852,-0.11642 -0.05852,-0.11642c0,-0.59611 0.10331,-1.21827 0.1164,-1.80135c-0.11682,0 -0.23365,0 -0.35047,0c0,0 -0.52665,0 -0.52665,-0.45034c0,-0.45034 0.52665,-0.45034 0.52665,-0.45034c0.6827,0 1.36539,0 2.04809,0l0.4841,0.05456c0,0 0.52136,0.06369 0.44687,0.5095z" fill="#00b5ff" stroke-width="0.5"/></g></g></g></svg>