<svg version="1.1" xmlns="http://www.w3.org/2000/svg" xmlns:xlink="http://www.w3.org/1999/xlink" width="509.43265" height="570" viewBox="0,0,509.43265,570"><g transform="translate(5.97039,116)"><g data-paper-data="{&quot;isPaintingLayer&quot;:true}" fill-rule="nonzero" stroke-linejoin="miter" stroke-miterlimit="10" stroke-dasharray="" stroke-dashoffset="0" style="mix-blend-mode: normal"><path d="M-5.97039,454v-570h495.47044v570z" fill="#4a4a4a" stroke="none" stroke-width="0" stroke-linecap="butt"/><path d="M22.66675,322.26952v-323.01952h50.75075v323.01952z" fill="#636363" stroke="none" stroke-width="0" stroke-linecap="butt"/><path d="M27.66675,327.26952v-55.18983h50.75076v55.18983z" fill="#636363" stroke="none" stroke-width="0" stroke-linecap="butt"/><path d="M137.21524,311.10503v-292.82198h319.9136v292.82198z" fill="#6d6d6d" stroke="none" stroke-width="0" stroke-linecap="butt"/><path d="M71.43866,176.26185v-32.88831h68.76647v32.88831z" fill="#636363" stroke="none" stroke-width="0" stroke-linecap="butt"/><g><path d="M140.67188,194.0438l20.21065,-29.64409l16.86307,11.49685l-20.21065,29.64409z" fill="#101010" stroke="none" stroke-width="0" stroke-linecap="butt"/><path d="M175.36849,176.709l-16.50759,24.419" fill="none" stroke="#ffffff" stroke-width="1" stroke-linecap="round"/><path d="M144.82983,190.95731l16.13687,-23.46246" fill="none" stroke="#ffffff" stroke-width="1" stroke-linecap="round"/><path d="M146.69283,191.32051l16.04757,-22.91872" fill="none" stroke="#ffffff" stroke-width="1" stroke-linecap="round"/><path d="M149.59893,191.1856l14.40371,-20.71398" fill="none" stroke="#ffffff" stroke-width="1" stroke-linecap="round"/><path d="M150.25366,194.35284l1.45174,-2.33573l13.97483,-20.70405" fill="none" stroke="#ffffff" stroke-width="1" stroke-linecap="round"/><path d="M166.28358,174.14295l-14.86374,22.21424" fill="none" stroke="#ffffff" stroke-width="1" stroke-linecap="round"/><path d="M147.91042,193.66221l2.62882,-3.64945" fill="none" stroke="#ffffff" stroke-width="1" stroke-linecap="round"/><path d="M152.57929,197.75229l16.80252,-23.61328" fill="none" stroke="#ffffff" stroke-width="1" stroke-linecap="round"/><path d="M170.16375,175.88141l-15.8108,22.77783" fill="none" stroke="#ffffff" stroke-width="1" stroke-linecap="round"/><path d="M156.64483,199.01249l14.95979,-22.14875" fill="none" stroke="#ffffff" stroke-width="1" stroke-linecap="round"/><path d="M158.03427,199.65747l15.14516,-22.627" fill="none" stroke="#ffffff" stroke-width="1" stroke-linecap="round"/><path d="M157.9334,169.05462l15.85612,11.41496" fill="none" stroke="#000000" stroke-width="1" stroke-linecap="round"/><path d="M170.17575,185.56375l-15.38259,-11.69676" fill="none" stroke="#000000" stroke-width="1" stroke-linecap="round"/><path d="M167.03551,190.3761l-14.45992,-10.16076l-0.77521,-1.13315" fill="none" stroke="#000000" stroke-width="1" stroke-linecap="round"/><path d="M164.90048,195.57148l-16.44596,-13.02638" fill="none" stroke="#000000" stroke-width="1" stroke-linecap="round"/><path d="M161.41387,199.24076l-15.29328,-12.24051" fill="none" stroke="#000000" stroke-width="1" stroke-linecap="round"/></g><path d="M206.26273,198.12945l120.47881,-0.45901l-5.2398,37.08866l-112.9788,1.43528z" fill="#8e4c00" stroke="none" stroke-width="0" stroke-linecap="butt"/><path d="M185.20439,250v-125.5h26.79568v125.5z" fill="#4a4a4a" stroke="none" stroke-width="0" stroke-linecap="butt"/><path d="M134.70433,250.5v-18h212.29568v18z" fill="#4a4a4a" stroke="none" stroke-width="0" stroke-linecap="butt"/><path d="M319.20439,249v-125.5h26.79569v125.5z" fill="#4a4a4a" stroke="none" stroke-width="0" stroke-linecap="butt"/><path d="M256.70439,80.5v-21.5h147.29569v21.5z" fill="#4a4a4a" stroke="none" stroke-width="0" stroke-linecap="butt"/><path d="M256.20439,80v-30h22.79568v30z" fill="#4a4a4a" stroke="none" stroke-width="0" stroke-linecap="butt"/><path d="M380.70442,80v-30h22.79568v30z" fill="#4a4a4a" stroke="none" stroke-width="0" stroke-linecap="butt"/><path d="M261.19525,179.64083c0,0 -0.7038,0.06529 -0.7038,-0.70255c0,-3.09988 -0.06544,-23.2908 -0.06544,-23.2908h24.85875v24.85875c0,0 -21.21371,0 -23.88678,0c-0.53921,0 -0.20273,-0.8654 -0.20273,-0.8654z" fill="#8e4c00" stroke="none" stroke-width="0" stroke-linecap="butt"/><path d="M261.73348,149.5875v-12.05657h24.85875v12.05657z" fill="#8e4c00" stroke="none" stroke-width="0" stroke-linecap="butt"/><path d="M266.13113,161.04842v-18.23693h3.66893v18.23693z" fill="#8e4c00" stroke="none" stroke-width="0" stroke-linecap="butt"/><path d="M278.03355,161.03153v-18.23693h3.66893v18.23693z" fill="#8e4c00" stroke="none" stroke-width="0" stroke-linecap="butt"/><path d="M285.486,192.98014l-3.95993,-17.80182l3.58139,-0.79666l3.95993,17.80182z" fill="#8e4c00" stroke="none" stroke-width="0" stroke-linecap="butt"/><path d="M264.38721,195.95727c0,0 -3.35415,-15.07857 -3.79282,-17.0506c-0.09208,-0.41393 0.55276,-0.75122 0.55276,-0.75122l2.86153,-0.79666l3.95993,17.80182z" fill="#8e4c00" stroke="none" stroke-width="0" stroke-linecap="butt"/><path d="M285.72722,174.38879l-3.95993,-17.80182l3.58139,-0.86211l3.95993,17.86726z" fill="#8e4c00" stroke="none" stroke-width="0" stroke-linecap="butt"/><path d="M245.24962,224.28702v-4.30928h51.71135v4.30928z" fill="#000000" stroke="none" stroke-width="0" stroke-linecap="butt"/><path d="M266.07777,229.31451v-7.18213h10.05499v7.18213z" fill="#000000" stroke="none" stroke-width="0" stroke-linecap="butt"/><path d="M254.8068,214.23204v-9.33677h34.96994v9.33677z" fill="#000000" stroke="none" stroke-width="0" stroke-linecap="butt"/><path d="M228.01251,219.97774v-15.08248h15.80069v15.08248z" fill="#cccccc" stroke="none" stroke-width="0" stroke-linecap="butt"/><path d="M233.75821,214.23204v-5.74571h2.87285v5.74571z" fill="#000000" stroke="none" stroke-width="0" stroke-linecap="butt"/><g stroke-width="1.5" stroke-linecap="butt"><path d="M313.84691,213.61398c0,2.67389 -2.56173,4.8415 -5.72178,4.8415c-3.16005,0 -5.72178,-2.16762 -5.72178,-4.8415c0,-2.67389 2.56173,-4.8415 5.72178,-4.8415c3.16005,0 5.72178,2.16762 5.72178,4.8415z" fill="#ffffff" stroke="#000000"/><path d="M311.93715,213.56816c0,1.8166 -1.7404,3.28924 -3.88729,3.28924c-2.14689,0 -3.88729,-1.47264 -3.88729,-3.28924c0,-1.8166 1.74039,-3.28924 3.88729,-3.28924c2.14689,0 3.88729,1.47264 3.88729,3.28924z" fill="#ffffff" stroke="#000000"/><path d="M312.61091,210.41765c-0.26264,-0.52529 0.26264,-0.78794 0.26264,-0.78794c0.55084,-0.27356 2.04541,-1.67365 2.64167,-1.47134c2.15866,0.73242 -1.3194,3.74548 -1.3194,3.74548c0,0 -0.48669,0.16223 -0.70195,-0.27144c-0.13572,0.08214 -0.32817,0.12382 -0.56961,-0.01415c-0.50991,-0.29138 -0.21853,-0.80129 -0.21853,-0.80129c0.0328,-0.05696 0.0647,-0.11172 0.09599,-0.16442c-0.07023,-0.05054 -0.1362,-0.12569 -0.19081,-0.23491z" fill="#000000" stroke="none"/></g><path d="M420.88038,204.39378v-40.44406h82.58188c0,0 0,10.21129 0,16.13993c0,7.27518 0,24.30413 0,24.30413z" fill="#6d6d6d" stroke="none" stroke-width="0" stroke-linecap="butt"/><g stroke="none" stroke-width="0" stroke-linecap="butt"><path d="M443.20887,31.722l6.50244,-8.24428l2.35551,1.85784l-6.50244,8.24428z" fill="#9a9a9a"/><path d="M437.09074,44.72704c-0.59853,0.75887 -1.83563,0.78102 -2.76313,0.04947c-0.9275,-0.73154 -1.19419,-1.93975 -0.59565,-2.69862c0.59853,-0.75887 1.83564,-0.78101 2.76313,-0.04947c0.9275,0.73154 1.19419,1.93975 0.59565,2.69862z" fill="#000000"/><path d="M432.96858,41.47582l10.99223,-13.93677l5.2999,4.18014l-10.99223,13.93677z" fill="#9a9a9a"/><path d="M457.02387,25.10606c-1.53909,1.95137 -4.72019,2.00833 -7.1052,0.12722c-2.38501,-1.88111 -3.07076,-4.98794 -1.53167,-6.93931c1.53909,-1.95137 4.72019,-2.00833 7.1052,-0.12722c2.38501,1.88111 3.07076,4.98794 1.53167,6.93931z" fill="#9a9a9a"/></g><path d="M136.60341,139.58818l-0.9985,-121.49959l321.81982,0.07593l-0.08421,145.58592" fill="none" stroke="#000000" stroke-width="2" stroke-linecap="round"/><path d="M136.27963,176.75h-62l-30.25004,-0.625l0.5,-32l29.5,-0.125h63.25l-39,0.375l-0.25,32.25l-10.25,0.25l-0.75,-33h-10l0.75,33.25" fill="none" stroke="#000000" stroke-width="2" stroke-linecap="round"/><path d="M136.6034,142.23147l-0.9985,-124.14288l321.81982,0.07016c0,0 -0.06655,91.93173 -0.09668,143.28252c-0.00068,1.15875 -0.42102,-8.12764 -0.23489,-0.84344" fill="none" stroke="#000000" stroke-width="2.5" stroke-linecap="round"/><path d="M458.91503,204.74484c0.15899,6.15314 0.27641,2.93409 0.27601,3.61845c-0.027,46.02642 -1.19598,102.64992 -1.19598,102.64992l-321.15165,-0.02057l-0.06555,-133.2678" fill="none" stroke="#000000" stroke-width="2.5" stroke-linecap="round"/><g stroke="none" stroke-width="0" stroke-linecap="butt"><path d="M445.08821,298.69438l7.46518,7.38384l-2.10967,2.13291l-7.46517,-7.38384z" fill="#9a9a9a"/><path d="M432.84916,291.15992c-0.68715,-0.67967 -0.57078,-1.91147 0.25992,-2.75133c0.83069,-0.83985 2.06116,-0.96971 2.74831,-0.29004c0.68715,0.67967 0.57077,1.91147 -0.25992,2.75132c-0.83069,0.83985 -2.06116,0.96971 -2.74831,0.29005z" fill="#000000"/><path d="M436.54108,287.42732l12.61971,12.48221l-4.74675,4.79904l-12.61971,-12.4822z" fill="#9a9a9a"/><path d="M450.11728,313.16274c-1.76696,-1.74771 -1.46773,-4.91521 0.66837,-7.07483c2.13609,-2.15962 5.30013,-2.49354 7.06709,-0.74583c1.76696,1.74771 1.46773,4.91521 -0.66836,7.07483c-2.13609,2.15962 -5.30014,2.49354 -7.06709,0.74583z" fill="#9a9a9a"/></g><g stroke="none" stroke-width="0" stroke-linecap="butt"><path d="M144.31551,32.23613l-5.78146,-8.76497l2.50428,-1.65185l5.78145,8.76497z" fill="#9a9a9a"/><path d="M154.73709,42.13325c0.53217,0.8068 0.1642,1.9881 -0.82188,2.63854c-0.98607,0.65043 -2.21686,0.52367 -2.74903,-0.28313c-0.53217,-0.8068 -0.16419,-1.9881 0.82188,-2.63853c0.98607,-0.65043 2.21686,-0.52367 2.74903,0.28312z" fill="#000000"/><path d="M150.3546,45.02399l-9.77342,-14.81698l5.63462,-3.71665l9.77342,14.81697z" fill="#9a9a9a"/><path d="M142.37918,17.04153c1.36843,2.07461 0.42224,5.11226 -2.11341,6.78479c-2.53564,1.67253 -5.70051,1.34658 -7.06895,-0.72803c-1.36843,-2.07461 -0.42224,-5.11226 2.1134,-6.7848c2.53564,-1.67253 5.70052,-1.34658 7.06895,0.72803z" fill="#9a9a9a"/></g></g></g></svg>