<svg version="1.1" xmlns="http://www.w3.org/2000/svg" xmlns:xlink="http://www.w3.org/1999/xlink" width="20.30085" height="16.09461" viewBox="0,0,20.30085,16.09461"><g transform="translate(-229.84958,-171.95269)"><g data-paper-data="{&quot;isPaintingLayer&quot;:true}" fill="#313131" fill-rule="nonzero" stroke="none" stroke-width="0" stroke-linecap="butt" stroke-linejoin="miter" stroke-miterlimit="10" stroke-dasharray="" stroke-dashoffset="0" style="mix-blend-mode: normal"><path d="M250.1504,179.98602c-0.00847,0.12495 -0.7404,0.78907 -0.75564,0.91222c-0.02366,0.1912 -0.11936,0.7693 -0.58081,0.86525c-0.45712,0.09505 -1.27988,-0.29203 -1.33384,-0.11272c-0.05561,0.18478 0.7811,0.87274 0.71038,1.06902c-0.03645,0.10115 0.41678,0.97496 0.16368,1.30016c-0.15785,0.20282 -1.28697,-0.02259 -1.46644,0.16313c-0.22373,0.23153 -0.58362,0.20923 -0.83804,0.41179c-0.08786,0.06995 -0.17745,1.47747 -0.2687,1.56047c-0.06961,0.06331 -2.12758,0.00171 -2.36679,0.10502c-0.52409,0.22635 -1.08148,0.39725 -1.66405,0.51151c-0.5814,0.11403 -0.10783,0.11163 -0.73135,0.11163c-0.06423,0 -0.61522,0.06504 -0.68959,0.16355c-0.23531,0.31166 -1.10476,1.0183 -1.30272,0.9999c-0.13069,-0.01215 -1.95187,-1.60077 -2.13481,-1.67233c-0.34979,-0.13682 -1.52928,1.2636 -1.85089,1.08311c-0.50372,-0.28268 -0.18706,-2.17651 -0.60305,-2.55357c-0.34433,-0.3121 -0.6562,-0.65386 -0.93163,-1.02089c-0.22549,-0.30048 -1.62663,-0.07786 -1.80109,-0.40978c-0.26952,-0.51277 0.24449,-0.76016 0.11001,-1.33329c-0.04512,-0.19229 -0.67442,-0.37391 -1.18878,-0.66879c-0.43158,-0.24742 -0.76448,-0.61008 -0.77662,-0.7794c-0.00582,-0.08117 0.5283,-0.33608 1.07892,-0.53452c0.58235,-0.20987 1.18315,-0.36368 1.18315,-0.45103c0,-0.2192 -0.66978,-0.46474 -1.21551,-0.7599c-0.45841,-0.24792 -0.81162,-0.54852 -0.7803,-0.72444c0.06289,-0.35327 0.65756,-0.88306 1.38675,-1.12954c0.44923,-0.15185 1.13567,-0.01002 1.22609,-0.20733c0.10746,-0.2345 -0.07209,-0.7027 0.06052,-0.92378c0.25019,-0.4171 0.84367,-0.62683 1.1748,-0.98481c0.26121,-0.28238 -0.52294,-0.99741 -0.30087,-1.37251c0.07273,-0.12285 1.05689,-0.04854 1.16123,-0.12259c0.28885,-0.20501 0.95103,0.03143 1.26572,-0.13034c0.24231,-0.12456 0.53954,-0.78463 0.84292,-0.71496c0.29162,0.06697 0.58893,0.86296 0.8486,0.79261c0.52852,-0.14319 0.81027,-1.43567 1.36972,-1.47605c0.21599,-0.01559 0.5576,1.41665 0.78739,1.41665c0.47279,0 0.9358,-0.86129 1.3855,-0.78701c0.36119,0.05965 0.8338,-0.39781 1.176,-0.29403c0.46052,0.13967 1.92226,-0.16224 2.34066,0.0502c0.42059,0.21356 0.87766,1.24185 1.24669,1.52063c0.11593,0.08758 1.21852,0.19223 1.44456,0.45937c0.41553,0.4911 0.01041,1.24576 0.1926,1.4363c0.22573,0.23607 -0.70237,0.36381 -0.51111,0.62246c0.36911,0.49917 0.3731,0.37438 0.56809,0.95385c0.0139,0.0413 1.11347,-0.37695 1.44162,0.01568c0.25731,0.30787 -0.23701,1.39163 -0.24396,1.72941c-0.01126,0.54729 1.1753,0.84647 1.17101,0.90967z"/></g></g></svg>