<svg version="1.1" xmlns="http://www.w3.org/2000/svg" xmlns:xlink="http://www.w3.org/1999/xlink" width="30.625" height="48.97624" viewBox="0,0,30.625,48.97624"><g transform="translate(-223.4375,-156.86188)"><g data-paper-data="{&quot;isPaintingLayer&quot;:true}" fill-rule="nonzero" stroke-linejoin="miter" stroke-miterlimit="10" stroke-dasharray="" stroke-dashoffset="0" style="mix-blend-mode: normal"><path d="M246.89769,164.44064c0,4.18563 -19.0154,4.18563 -19.0154,0c0,-4.18563 4.25674,-7.57876 9.5077,-7.57876c5.25095,0 9.5077,3.39313 9.5077,7.57876z" fill="#ffef33" stroke="#c37b29" stroke-width="0" stroke-linecap="butt"/><path d="M229.37023,203.33812l7.80166,-12.79473l6.24133,12.79473" fill="none" stroke="#9b5300" stroke-width="5" stroke-linecap="round"/><path d="M225.9375,178.06073l11.2344,-4.05687l-0.31207,16.53953" fill="none" stroke="#9b5300" stroke-width="5" stroke-linecap="round"/><path d="M236.54776,173.6918l11.54646,4.681" fill="none" stroke="#9b5300" stroke-width="5" stroke-linecap="round"/><path d="M244.03736,166.51427c0,3.44699 -2.93406,6.24133 -6.5534,6.24133c-3.61934,0 -6.5534,-2.79434 -6.5534,-6.24133c0,-3.44699 2.93406,-6.24133 6.5534,-6.24133c3.61934,0 6.5534,2.79434 6.5534,6.24133z" fill="#9b5300" stroke="#9b5300" stroke-width="5" stroke-linecap="butt"/><path d="M241.50737,167.83501c0.55166,0.55166 0,1.10332 0,1.10332l-0.54612,0.54612c-2.01484,1.95401 -4.66233,1.71199 -6.80387,0.06417c0,0 -0.61583,-0.47898 -0.13685,-1.0948c0.47898,-0.61583 1.0948,-0.13685 1.0948,-0.13685c1.456,1.14738 3.36289,1.5058 4.74259,0.06417l0.54612,-0.54612c0,0 0.55166,-0.55166 1.10332,0z" fill="#ff3333" stroke="none" stroke-width="0.5" stroke-linecap="butt"/><path d="M236.50876,166.35823c0,-0.43087 0.34929,-0.78017 0.78017,-0.78017c0.43087,0 0.78017,0.34929 0.78017,0.78017c0,0.43087 -0.34929,0.78017 -0.78017,0.78017c-0.43087,0 -0.78017,-0.34929 -0.78017,-0.78017z" fill="#d0832c" stroke="none" stroke-width="0.5" stroke-linecap="butt"/><path d="M234.55834,163.31558c0,-0.43087 0.34929,-0.78017 0.78017,-0.78017c0.43087,0 0.78017,0.34929 0.78017,0.78017c0,0.43087 -0.34929,0.78017 -0.78017,0.78017c-0.43087,0 -0.78017,-0.34929 -0.78017,-0.78017z" fill="#ef7500" stroke="none" stroke-width="0.5" stroke-linecap="butt"/><path d="M239.86347,163.93972c0,-0.43087 0.34929,-0.78017 0.78017,-0.78017c0.43087,0 0.78017,0.34929 0.78017,0.78017c0,0.43087 -0.34929,0.78017 -0.78017,0.78017c-0.43087,0 -0.78017,-0.34929 -0.78017,-0.78017z" fill="#ef7500" stroke="none" stroke-width="0.5" stroke-linecap="butt"/><g stroke="none" stroke-linecap="butt"><path d="M244.15439,194.16013v-12.0229h9.362v12.0229z" fill="#0048ff" stroke-width="0"/><path d="M245.09059,193.90731c0,0.41888 -0.43662,0.75845 -0.97521,0.75845c-0.53859,0 -0.97521,-0.33957 -0.97521,-0.75845c0,-0.41888 0.43662,-0.75845 0.97521,-0.75845c0.53859,0 0.97521,0.33957 0.97521,0.75845z" fill="#000000" stroke-width="0"/><path d="M254.0625,194.04776c0,0.4344 -0.41915,0.78655 -0.9362,0.78655c-0.51705,0 -0.9362,-0.35215 -0.9362,-0.78655c0,-0.4344 0.41915,-0.78655 0.9362,-0.78655c0.51705,0 0.9362,0.35215 0.9362,0.78655z" fill="#000000" stroke-width="0"/><path d="M250.77875,177.60182c-0.0993,0.50055 -0.79439,0.42905 -0.79439,0.42905l-0.44682,-0.0511c-0.00052,0 -0.00104,0 -0.00155,0c-0.00025,1.4585 0.07957,2.91321 0.07957,4.38218c0,0 0,0.16854 -0.23405,0.16854c-0.23405,0 -0.23405,-0.16854 -0.23405,-0.16854c0,-1.46572 -0.05122,-2.92632 -0.07343,-4.38218c-0.44607,0 -0.89214,0 -1.33821,0c-0.02997,0.61895 -0.13416,1.25684 -0.14732,1.89271c0.07665,0.04976 0.07665,0.12984 0.07665,0.12984c0,0.74909 0,1.61054 0,2.35964c0,0 0,0.16854 -0.23405,0.16854c-0.23405,0 -0.23405,-0.16854 -0.23405,-0.16854c0,-0.74297 0,-1.48594 0,-2.22891c-0.07802,-0.04969 -0.07802,-0.13072 -0.07802,-0.13072c0,-0.66931 0.13774,-1.36787 0.15519,-2.02254c-0.15575,0 -0.31151,0 -0.46726,0c0,0 -0.70215,0 -0.70215,-0.50564c0,-0.50564 0.70215,-0.50564 0.70215,-0.50564c0.9102,0 1.82039,0 2.73058,0l0.64542,0.06126c0,0 0.69509,0.07151 0.59579,0.57206z" fill="#0048ff" stroke-width="0.5"/></g></g></g></svg>