<svg version="1.1" xmlns="http://www.w3.org/2000/svg" xmlns:xlink="http://www.w3.org/1999/xlink" width="505" height="365.71465" viewBox="0,0,505,365.71465"><g transform="translate(10.5,2.71465)"><g data-paper-data="{&quot;isPaintingLayer&quot;:true}" fill-rule="nonzero" stroke-linejoin="miter" stroke-miterlimit="10" stroke-dasharray="" stroke-dashoffset="0" style="mix-blend-mode: normal"><path d="M-2.5,362.71465v-365.4293h485v365.42931z" fill-opacity="0.85484" fill="#0a939a" stroke="none" stroke-width="0" stroke-linecap="butt"/><path d="M286.7,231.18535l-44.6,28.8" fill="none" stroke="#626262" stroke-width="5" stroke-linecap="round"/><path d="M326.58757,222.625c19.78343,0 35.82107,2.40647 35.82107,5.375c0,2.96853 -16.03764,5.375 -35.82107,5.375c-19.78343,0 -19.78343,-10.75 0,-10.75z" data-paper-data="{&quot;index&quot;:null}" fill="#696969" stroke="none" stroke-width="0" stroke-linecap="butt"/><path d="M287.07107,233.125c-19.78343,0 -35.82107,-2.40647 -35.82107,-5.375c0,-2.96853 16.03764,-5.375 35.82107,-5.375c19.78343,0 19.78343,10.75 0,10.75z" fill="#696969" stroke="none" stroke-width="0" stroke-linecap="butt"/><path d="M-10.5,363v-53h504v53z" fill="#376925" stroke="none" stroke-width="0" stroke-linecap="butt"/><path d="M-9.5,314v-54h504v54z" fill="#505050" stroke="none" stroke-width="0" stroke-linecap="butt"/><path d="M324.5,228.5c0,9.66499 -8.50659,17.5 -19,17.5c-10.49341,0 -19,-7.83501 -19,-17.5c0,-9.66499 8.50659,-17.5 19,-17.5c10.49341,0 19,7.83501 19,17.5z" fill="#696969" stroke="none" stroke-width="0" stroke-linecap="butt"/><path d="M321.5,218.5c0,11.32183 -6.93959,20.5 -15.5,20.5c-8.56041,0 -15.5,-9.17817 -15.5,-20.5c0,-11.32183 6.93959,-20.5 15.5,-20.5c8.56041,0 15.5,9.17817 15.5,20.5z" fill="#696969" stroke="none" stroke-width="0" stroke-linecap="butt"/><path d="M309,231.875c0,1.79493 -1.39911,3.25 -3.125,3.25c-1.72589,0 -3.125,-1.45507 -3.125,-3.25c0,-1.79493 1.39911,-3.25 3.125,-3.25c1.72589,0 3.125,1.45507 3.125,3.25z" fill="#000000" stroke="none" stroke-width="0" stroke-linecap="butt"/><path d="M288.75,257.5c0,2.27817 -0.67158,4.125 -1.5,4.125c-0.82842,0 -1.5,-1.84683 -1.5,-4.125c0,-2.27818 0.67158,-4.125 1.5,-4.125c0.82842,0 1.5,1.84682 1.5,4.125z" fill="#000000" stroke="none" stroke-width="0" stroke-linecap="butt"/><path d="M323.75,257.375c0,2.07107 -0.67158,3.75 -1.5,3.75c-0.82842,0 -1.5,-1.67893 -1.5,-3.75c0,-2.07107 0.67158,-3.75 1.5,-3.75c0.82842,0 1.5,1.67893 1.5,3.75z" fill="#000000" stroke="none" stroke-width="0" stroke-linecap="butt"/><path d="M306.25,257.25c0,1.86396 -0.55964,3.375 -1.25,3.375c-0.69036,0 -1.25,-1.51104 -1.25,-3.375c0,-1.86396 0.55964,-3.375 1.25,-3.375c0.69036,0 1.25,1.51104 1.25,3.375z" fill="#000000" stroke="none" stroke-width="0" stroke-linecap="butt"/><path d="M308.25,230.125l12.75,-7.5" fill="none" stroke="#000000" stroke-width="2.5" stroke-linecap="round"/><path d="M288.5,256.125l6.25,-13.25" fill="none" stroke="#696969" stroke-width="1.5" stroke-linecap="round"/><path d="M321,257.625l-5.5,-15.75" fill="none" stroke="#696969" stroke-width="1.5" stroke-linecap="round"/><path d="M305.25,257.625l0.5,-12.25" fill="none" stroke="#696969" stroke-width="1.5" stroke-linecap="round"/><path d="M290.75,224.375l15,7v16" fill="none" stroke="#000000" stroke-width="2.5" stroke-linecap="round"/><path d="M316.5,210c0,2.55432 -4.64505,4.625 -10.375,4.625c-5.72995,0 -10.375,-2.07068 -10.375,-4.625c0,-2.55432 4.64505,-4.625 10.375,-4.625c5.72995,0 10.375,2.07068 10.375,4.625z" fill="#696969" stroke="none" stroke-width="0" stroke-linecap="butt"/><path d="M317.25,210.875c0,2.62335 -4.92487,4.75 -11,4.75c-6.07513,0 -11,-2.12665 -11,-4.75c0,-2.62335 4.92487,-4.75 11,-4.75c6.07513,0 11,2.12665 11,4.75z" fill="#ffffff" stroke="none" stroke-width="0" stroke-linecap="butt"/></g></g></svg>