<svg version="1.1" xmlns="http://www.w3.org/2000/svg" xmlns:xlink="http://www.w3.org/1999/xlink" width="37.29209" height="48.70664" viewBox="0,0,37.29209,48.70664"><g transform="translate(-238.99705,-194.39336)"><g data-paper-data="{&quot;isPaintingLayer&quot;:true}" fill-rule="nonzero" stroke-linecap="butt" stroke-linejoin="miter" stroke-miterlimit="10" stroke-dasharray="" stroke-dashoffset="0" style="mix-blend-mode: normal"><path d="M261.53914,221.64264c0,2.39414 -0.18568,4.64535 -0.51216,6.60581c-2.44169,0.00885 -4.88635,-0.1365 -7.32456,-0.02281c-0.32414,-1.95511 -0.50838,-4.19815 -0.50838,-6.583c0,-7.594 1.86811,-13.75014 4.17255,-13.75014c2.30444,0 4.17255,6.15615 4.17255,13.75014z" fill="#d1942c" stroke="none" stroke-width="NaN"/><path d="M264.4792,203.07008c0,3.95047 -3.10416,7.15295 -6.93333,7.15295c-3.82917,0 -6.93333,-3.20248 -6.93333,-7.15295c0,-3.95047 3.10416,-7.15294 6.93334,-7.15294c3.82918,0 6.93334,3.20247 6.93334,7.15294z" fill="#d1942c" stroke="none" stroke-width="NaN"/><path d="M252.11252,196.00241c4.22236,-2.59857 12.6924,-2.44701 13.99806,3.42846c0.39379,1.77205 -1.42358,2.1386 -2.75729,2.06359c-0.54413,-0.03061 -0.9556,-1.4053 -1.00742,-1.90328c-0.04543,-0.43649 -2.7801,-1.57914 -3.05077,-1.56615c-1.66463,0.07988 -3.96116,-0.14549 -5.33242,1.14804c-0.4872,0.45958 -1.1627,1.56244 -1.6412,1.83587c-0.2183,0.36987 -0.62091,0.618 -1.08149,0.618c-0.6038,0 -1.10799,-0.42642 -1.22786,-0.99455c-1.26932,-1.59165 0.13822,-3.4224 2.10039,-4.62999z" fill="#965e00" stroke="none" stroke-width="0.5"/><path d="M254.12625,201.31322c0,-0.34653 0.28092,-0.62745 0.62745,-0.62745c0.34653,0 0.62745,0.28092 0.62745,0.62745c0,0.34653 -0.28092,0.62745 -0.62745,0.62745c-0.34653,0 -0.62745,-0.28092 -0.62745,-0.62745z" fill="#965e00" stroke="none" stroke-width="0.5"/><path d="M259.08312,201.18773c0,-0.34653 0.28091,-0.62745 0.62745,-0.62745c0.34654,0 0.62745,0.28092 0.62745,0.62745c0,0.34653 -0.28092,0.62745 -0.62745,0.62745c-0.34654,0 -0.62745,-0.28092 -0.62745,-0.62745z" fill="#965e00" stroke="none" stroke-width="0.5"/><path d="M256.88704,203.2282c0,-0.3992 0.25283,-0.72283 0.56471,-0.72283c0.31188,0 0.56471,0.32362 0.56471,0.72283c0,0.3992 -0.25283,0.72283 -0.56471,0.72283c-0.31188,0 -0.56471,-0.32362 -0.56471,-0.72283z" fill="#8e5900" stroke="none" stroke-width="0.5"/><path d="M260.7817,204.69699c0.44367,0.44368 0,0.88735 0,0.88735l0.01565,-0.03288c-1.85501,2.73976 -4.32912,1.08772 -6.92208,1.09509c0,0 -0.62745,0 -0.62745,-0.62745c0,-0.62745 0.62745,-0.62745 0.62745,-0.62745c1.97655,0.0049 4.50194,1.56921 5.87794,-0.53628l0.14114,-0.15838c0,0 0.44367,-0.44368 0.88735,0z" fill="#ff6666" stroke="none" stroke-width="0.5"/><path d="M258.43585,213.3951c0.13466,-0.79711 2.65909,-1.03524 5.63844,-0.53189c2.97936,0.50335 5.28542,1.55757 5.15076,2.35468c-0.13466,0.79711 -2.65908,1.03525 -5.63844,0.5319c-2.97936,-0.50335 -5.28543,-1.55759 -5.15076,-2.35469z" data-paper-data="{&quot;index&quot;:null}" fill="#d1942c" stroke="none" stroke-width="NaN"/><path d="M266.34615,214.12641c0.34377,-0.73167 2.8394,-0.2832 5.57419,1.00169c2.73478,1.28489 4.67307,2.91963 4.3293,3.65131c-0.34377,0.73167 -2.83941,0.2832 -5.57418,-1.00169c-2.73478,-1.28489 -4.67307,-2.91963 -4.3293,-3.65131z" data-paper-data="{&quot;index&quot;:null}" fill="#d1942c" stroke="none" stroke-width="NaN"/><path d="M252.56021,215.49881c-2.97936,0.50335 -5.50377,0.26521 -5.63844,-0.5319c-0.13467,-0.79711 2.1714,-1.85134 5.15077,-2.35469c2.97936,-0.50335 5.50377,-0.26521 5.63843,0.53189c0.13466,0.79711 -2.1714,1.85135 -5.15076,2.35469z" data-paper-data="{&quot;index&quot;:null}" fill="#d1942c" stroke="none" stroke-width="NaN"/><path d="M245.47137,217.48114c-2.73478,1.28489 -5.23041,1.73336 -5.57418,1.00169c-0.34376,-0.73167 1.59453,-2.36642 4.32931,-3.65131c2.73478,-1.28489 5.23041,-1.73336 5.57419,-1.00169c0.34376,0.73167 -1.59453,2.36642 -4.32931,3.65131z" data-paper-data="{&quot;index&quot;:null}" fill="#d1942c" stroke="none" stroke-width="NaN"/><path d="M252.9596,228.45918v-17.36785h9.43686v17.36785z" fill="#6c6c6c" stroke="none" stroke-width="0"/><path d="M250.3494,216.41212v-4.81882h3.91529v4.81882z" fill="#6c6c6c" stroke="none" stroke-width="0"/><path d="M260.08745,216.41212v-4.81882h3.9153v4.81882z" fill="#6c6c6c" stroke="none" stroke-width="0"/><path d="M253.0036,229.44667v-1.4055h9.43687v1.4055z" fill="#001396" stroke="none" stroke-width="0"/><path d="M253.30478,242.89922v-13.85412h2.71059v13.85412z" fill="#001396" stroke="none" stroke-width="0"/><path d="M260.03105,243.1v-14.25569h2.30902v14.25569z" fill="#001396" stroke="none" stroke-width="0"/><path d="M238.99705,225.22665l0.73079,-12.30224l4.01218,0.38507l-1.52163,12.33882z" fill="#090909" stroke="none" stroke-width="0"/><path d="M242.27115,225.31592c-0.06498,0.67707 -0.8458,1.15606 -1.74401,1.06986c-0.89821,-0.0862 -1.57368,-0.70497 -1.5087,-1.38203c0.06498,-0.67707 0.8458,-1.15606 1.74401,-1.06985c0.89821,0.0862 1.57368,0.70496 1.5087,1.38203z" fill="#090909" stroke="none" stroke-width="0"/><path d="M244.29911,212.21728c-0.12991,1.35361 -1.31223,2.34757 -2.64077,2.22007c-1.32855,-0.12751 -2.30023,-1.32819 -2.17032,-2.68181c0.12991,-1.35361 1.31223,-2.34757 2.64077,-2.22007c1.32855,0.12751 2.30023,1.32819 2.17032,2.68181z" fill="#090909" stroke="#000000" stroke-width="0.5"/><path d="M243.83706,217.34698c-1.40759,0.66134 -2.6921,0.89217 -2.86904,0.51557c-0.17694,-0.37659 0.8207,-1.218 2.2283,-1.87934c1.40759,-0.66134 2.6921,-0.89216 2.86904,-0.51557c0.17694,0.37659 -0.82071,1.218 -2.2283,1.87933z" data-paper-data="{&quot;index&quot;:null}" fill="#d1942c" stroke="none" stroke-width="NaN"/></g></g></svg>