<svg version="1.1" xmlns="http://www.w3.org/2000/svg" xmlns:xlink="http://www.w3.org/1999/xlink" width="55.82428" height="54.74441" viewBox="0,0,55.82428,54.74441"><g transform="translate(-212.08786,-152.6278)"><g data-paper-data="{&quot;isPaintingLayer&quot;:true}" fill-rule="nonzero" stroke-linecap="butt" stroke-linejoin="miter" stroke-miterlimit="10" stroke-dasharray="" stroke-dashoffset="0" style="mix-blend-mode: normal"><path d="M264.16214,180c0,13.04619 -10.81776,23.6222 -24.16214,23.6222c-13.34438,0 -24.16214,-10.57602 -24.16214,-23.6222c0,-13.04619 10.81776,-23.6222 24.16214,-23.6222c13.34438,0 24.16214,10.57602 24.16214,23.6222z" fill="#767676" stroke="#000000" stroke-width="7.5"/><g stroke="none" stroke-width="0.5"><path d="M237.39363,163.19092l0.45233,-0.20592c0.3863,0 1.1337,-0.1208 1.47534,0.05002c0.52084,0.26042 0.61562,0.96138 0.84428,1.41351c0.23838,0.47135 0.4355,0.88908 0.48925,1.4273c0.02093,0.20953 -0.02125,0.42222 0,0.63173c0.05219,0.51459 0.18935,0.97538 0.19182,1.49965c0,2.21758 -0.06317,4.41529 -0.06317,6.63311c0,0 0,0.02186 -0.00469,0.05618c0.11404,0.58173 0.13104,1.11902 0.13104,1.71265c0,0.26072 -0.02148,0.5222 -0.00161,0.78216c0.02054,0.26884 0.08003,0.53706 0.26478,0.7394c0.08578,0.09395 0.20709,0.15996 0.2682,0.27154c0.00269,0.00492 0.0049,0.01013 0.00665,0.01556c0.05029,-0.01269 0.1115,-0.00625 0.15294,-0.03687c0.17047,-0.12598 0.34411,-0.52599 0.42454,-0.70245c0.14911,-0.32712 0.11674,-0.50901 0.15025,-0.86336c0.06305,-0.66689 0.24892,-1.2742 0.252,-1.95074c0.07494,-0.44966 0.0203,-0.87697 0.06317,-1.32662c0.06722,-0.70507 0.37455,-1.38124 0.4429,-2.0923c0.13139,-1.36698 0.33733,-2.78639 0.97154,-4.02069c0.19329,-0.19741 0.46546,-0.5193 0.73992,-0.61465c0.30402,-0.10562 1.08081,-0.04985 1.35002,0.11182c0.33811,0.20304 0.49037,0.67228 0.6658,0.98995c0.05778,0.10465 0.16341,0.18092 0.20901,0.29143c0.32767,0.79405 0.05245,1.88737 -0.02422,2.7038c-0.05377,0.57269 0.05088,1.13541 -0.06317,1.70565c0.00072,0.51752 -0.07848,1.00636 -0.12635,1.51614c-0.05698,0.60683 -0.00703,1.22506 -0.06317,1.832c-0.0577,0.62373 -0.28249,1.21156 -0.38528,1.81174c-0.05058,0.29537 -0.03559,0.63032 -0.01662,0.95852c0.27387,0.15586 0.20549,0.49777 0.20549,0.49777l-0.06317,0.31586c-0.09308,0.44595 -0.05397,0.90518 -0.05397,1.36005c0,0.96698 -0.06491,1.96216 0.12058,2.91251c0.01354,0.06941 0.14022,0.01852 0.21039,0.02732c0.19253,0.02414 0.36654,-0.10401 0.5027,-0.24257c0.54794,-0.55758 0.93333,-1.26202 1.561,-1.74518c0.58462,-0.4677 1.24927,-0.68142 1.85779,-1.09256c0.39503,-0.26691 0.87627,-0.68588 1.33818,-0.82149c0.40834,-0.11989 0.89433,0.01176 1.27726,0.13032c0.73191,0.22661 1.27771,0.57237 1.49273,1.30983c0.03994,0.08625 0.0446,0.17664 0.03907,0.24608c-0.00364,0.08092 -0.02446,0.18824 -0.09671,0.27791l-0.103,0.21727c-0.25814,0.25814 -0.50792,0.54077 -0.78266,0.78097c-0.23547,0.20586 -0.50335,0.34477 -0.71057,0.58422c-0.30327,0.35045 -0.47726,0.74722 -0.71296,1.13893c-0.20718,0.34433 -0.48459,0.65067 -0.68814,0.99948c-0.40108,0.68731 -0.72194,1.44785 -1.08068,2.15914c-0.12737,0.16726 -0.20263,0.36844 -0.30586,0.55159c-0.47062,0.83494 -1.19125,1.57113 -1.72551,2.36963c-0.47366,0.70793 -1.13125,1.38324 -1.29909,2.24439c0.00132,0.09169 -0.02942,0.17309 -0.06329,0.23457c-0.03065,0.06396 -0.07972,0.13714 -0.15645,0.18947l-0.11863,0.11863c-0.41257,0.40954 -0.79047,0.85924 -1.20027,1.26345c-0.46624,0.45987 -1.10596,0.77349 -1.62417,1.17663c-0.48378,0.37635 -0.93424,0.7783 -1.504,1.01294c-0.0923,0.03692 -0.66037,0.26658 -0.71809,0.27803c-0.31359,0.06222 -0.71569,0.00855 -1.03718,0.00855c-0.69198,0 -1.37584,-0.06448 -2.0606,-0.12796c-0.48903,-0.04534 -0.97299,-0.21667 -1.46057,-0.25338c-0.40093,-0.03019 -0.81942,-0.00059 -1.22345,0.00211c-0.05504,0.00353 -0.10581,-0.00223 -0.14577,-0.00994c-0.0401,-0.0077 -0.08957,-0.02127 -0.13953,-0.04514l-0.29758,-0.12042c-0.62222,-0.37333 -1.35097,-0.48258 -1.97993,-0.83265c-1.1715,-0.65204 -2.08647,-1.82018 -2.76422,-2.94886c-0.18848,-0.3164 -0.45937,-0.57735 -0.63849,-0.89606c-0.68863,-1.2253 -0.943,-2.63664 -1.1901,-4.00022c-0.16322,-0.90071 -0.44171,-1.77613 -0.61985,-2.66682c-0.42077,-1.03188 -0.57384,-2.18847 -0.77159,-3.2809c-0.03494,-0.19301 0.00014,-0.39732 -0.05342,-0.58601c-0.26182,-0.92254 -0.80418,-1.78444 -0.99917,-2.71507l-0.14461,-0.0932c-0.08849,-0.45947 -0.31978,-0.60798 -0.52363,-1.01013c-0.12524,-0.24707 -0.21027,-0.51368 -0.28716,-0.77978c-0.13067,-0.45225 -0.08281,-0.93357 -0.08281,-1.39846c0,-0.54893 -0.12836,-1.3285 0.02432,-1.85548c0.05892,-0.20336 0.25284,-0.3502 0.31119,-0.55373c0.1081,-0.37702 0.04061,-0.61239 0.49495,-0.85732c0.16913,-0.09117 0.38296,-0.03181 0.57444,-0.04771c0.40298,0.08494 0.62508,0.07744 0.94575,0.41698c0.10396,0.11007 0.12061,0.278 0.19008,0.41252c0.09578,0.18547 0.23909,0.34242 0.35056,0.51892c0.15071,0.23865 0.22034,0.52371 0.37861,0.75743c0.06679,0.09863 0.18918,0.15192 0.25269,0.25269c0.14168,0.22479 0.17211,0.50293 0.24813,0.75753c0.13689,0.45851 0.39779,0.85966 0.55902,1.29793c0.04422,0.12021 0.01991,0.25847 0.06317,0.37904c0.14955,0.41682 0.47643,0.75961 0.67473,1.15344c0.02295,0.04558 0.26484,0.66269 0.28239,0.70726c0.09412,0.45768 0.16956,1.12979 0.68682,1.34496c0.11304,0.04702 0.51929,0.1481 0.60606,-0.0096c0.10872,-0.19759 -0.09303,-0.73116 -0.12837,-0.92542c-0.1352,-0.74317 -0.28745,-1.48279 -0.43033,-2.22462c-0.08189,-0.21526 -0.09449,-0.45086 -0.13743,-0.67713c-0.12182,-0.64178 -0.43258,-1.28543 -0.62063,-1.91293c-0.14401,-0.48053 -0.14707,-0.99406 -0.25966,-1.47912c-0.1529,-0.6587 -0.40725,-1.29226 -0.56516,-1.94485c-0.10145,-0.41929 -0.07924,-0.83392 -0.07924,-1.25946c0,-0.69951 -0.0525,-1.41686 0.07094,-2.10693c0.02192,-0.12254 0.13973,-0.70633 0.17465,-0.76987c0.38909,-0.70813 1.22651,-1.15646 2.00092,-0.84069c0.0975,0.03975 0.15678,0.14608 0.25269,0.18952c0.25048,0.11345 0.57893,0.09259 0.77336,0.28703c0.25588,0.25588 0.22972,0.54165 0.31242,0.84514c0.12095,0.44386 0.25842,0.84593 0.32493,1.30506c0.18665,0.93667 0.31757,1.90566 0.50363,2.83316c0.26679,1.32994 0.9711,2.5872 1.19231,3.92807l0.0705,0.11165c0.06849,0.35397 0.0735,0.6687 0.06626,1.02779c0.16607,0.47139 0.41552,0.911 0.55503,1.39385c0.09262,0.32057 -0.00578,0.63693 0.0585,0.93276c0.01977,0.09096 0.37868,0.255 0.41256,0.23143c0.26719,-0.18586 0.1803,-0.89386 0.1803,-1.15554c0,-0.23163 0,-0.46326 0,-0.6949c0,0 0,-0.00584 0.00065,-0.01622c-0.07828,-0.43792 -0.06382,-0.8649 -0.06382,-1.3104c0.0056,-0.96075 -0.06317,-1.9373 -0.06317,-2.90593c0,-0.77078 0.0791,-1.58718 0.00231,-2.35386c-0.05561,-0.55519 -0.18952,-1.07954 -0.18952,-1.64248c-0.24955,-1.19563 -0.14756,-2.41684 0.06863,-3.60659c0.11617,-0.63933 0.29409,-1.19329 0.67897,-1.58116c-0.03064,-0.26677 0.21915,-0.4333 0.21915,-0.4333zM239.89906,168.00721c0.00285,-0.48883 -0.13949,-0.92382 -0.18721,-1.40628c-0.04018,-0.40626 0.00762,-0.77373 -0.10901,-1.17513c-0.05817,-0.20022 -0.19365,-0.36934 -0.28616,-0.5562c-0.14903,-0.30102 -0.23432,-0.58779 -0.3968,-0.87385c-0.01899,-0.03344 0.01203,-0.09599 -0.02237,-0.11319c-0.0344,-0.0172 -0.06579,0.04547 -0.10397,0.05002c-0.08421,0.01003 -0.17101,0.0145 -0.259,0.01573c-0.10346,0.07879 -0.21663,0.10141 -0.21663,0.10141c-0.70058,0.10118 -0.78424,0.74326 -0.89033,1.32648c-0.20313,1.11657 -0.27492,2.21989 -0.05771,3.34238c0,0.56413 0.13396,1.08622 0.18952,1.64248c0.06944,0.69525 0.00231,1.43294 0.00231,2.13137c0,1.0757 0.05831,2.15337 0.06317,3.2218c0,0.39496 -0.02684,0.78336 0.05397,1.17053l0.00732,0.12428c0.00188,0.01996 0.00188,0.03182 0.00188,0.03182c0,0.58261 0.12058,1.32316 -0.09505,1.87651c-0.07386,0.18953 -0.43384,0.73624 -0.60906,0.82148c-0.44189,0.21495 -1.11606,-0.01417 -1.43132,-0.34144c-0.46326,-0.48091 -0.20075,-0.85905 -0.37182,-1.40029c-0.16374,-0.51806 -0.41517,-0.99471 -0.58207,-1.51208c-0.00402,-0.29918 0.00654,-0.57134 -0.03577,-0.85697c-0.01881,-0.02722 -0.03397,-0.05495 -0.04612,-0.08124c-0.0336,-0.06233 -0.06334,-0.14423 -0.06052,-0.23614c-0.04555,-0.24209 -0.13985,-0.47449 -0.21796,-0.70863c-0.18759,-0.56239 -0.33431,-1.14884 -0.50901,-1.71689c-0.14485,-0.47102 -0.35887,-0.95936 -0.45482,-1.44022c-0.18692,-0.93673 -0.31772,-1.90815 -0.50712,-2.85237c-0.06106,-0.43407 -0.19224,-0.80217 -0.30679,-1.22183c-0.03718,-0.13621 0.03322,-0.31847 -0.06662,-0.41831c-0.11753,-0.11753 -0.33781,-0.02538 -0.49009,-0.09201c-0.12871,-0.05632 -0.34557,-0.30602 -0.5412,-0.23574c-0.14373,0.05164 -0.20845,0.22362 -0.32018,0.32775c-0.05389,0.05022 -0.13347,0.07725 -0.16998,0.14123c-0.08256,0.14466 -0.04771,0.32979 -0.07805,0.49357c-0.11647,0.62869 -0.05541,1.29803 -0.05541,1.9361c0,1.05956 0.38443,1.96459 0.61905,2.98659c0.10714,0.46668 0.10715,0.96555 0.24572,1.42682c0.1981,0.65944 0.50224,1.32811 0.64282,2.00375c0.04057,0.19501 0.03716,0.40308 0.11526,0.58631c0.18015,0.87599 0.34337,1.7549 0.51582,2.63216c0.07735,0.39346 0.17107,0.92443 -0.06376,1.29312c-0.69685,1.09408 -2.23461,0.33067 -2.70904,-0.52587c-0.18104,-0.32685 -0.22465,-0.68563 -0.2938,-1.0447c-0.25791,-0.63248 -0.70463,-1.16877 -0.93805,-1.80331c-0.04422,-0.12021 -0.01991,-0.25847 -0.06317,-0.37904c-0.16242,-0.45269 -0.43527,-0.88134 -0.57809,-1.35531c-0.02083,-0.06912 -0.06191,-0.41057 -0.13091,-0.50591c-0.06984,-0.0965 -0.18722,-0.15318 -0.25269,-0.25269c-0.2068,-0.31431 -0.35428,-0.68575 -0.56618,-1.00721c-0.23931,-0.36303 -0.17668,-0.60291 -0.6011,-0.6773c-0.10204,-0.08499 0.01195,-0.02347 -0.06772,0.23207c-0.06603,0.21182 -0.25248,0.37218 -0.32054,0.58337c-0.05578,0.1731 0.02432,0.3632 0.02432,0.54507c0,0.64633 -0.15278,1.5181 0.04353,2.1392c0.18152,0.57431 0.542,1.00308 0.73942,1.54944c0.02438,0.01473 0.04619,0.03155 0.06568,0.04966c0.08101,0.06252 0.14903,0.16196 0.16044,0.32011c0.06485,0.3881 0.24849,0.6951 0.40558,1.06144c0.23353,0.54459 0.44015,1.07256 0.59099,1.64434c0.05794,0.21961 0.03209,0.45403 0.07293,0.67744c0.19383,1.06036 0.34747,2.1549 0.74454,3.16268c0.16261,0.81303 0.38922,1.61855 0.57665,2.43161c0.31807,1.37974 0.45889,2.77458 1.15106,4.0412c0.16787,0.30721 0.44118,0.5683 0.62496,0.87278c0.5916,0.98684 1.38881,2.04126 2.41592,2.61032c0.61335,0.33982 1.3273,0.44415 1.93676,0.80983l0.19432,0.07661c0.42486,-0.00362 0.86349,-0.03023 1.28431,0.0027c0.79701,0.06236 1.59684,0.2428 2.39294,0.31517c0.57257,0.05205 1.32049,0.18622 1.89284,0.07011c0.19302,-0.03916 0.36249,-0.15421 0.54536,-0.22735c0.47968,-0.18374 0.87217,-0.56852 1.2756,-0.88223c0.48074,-0.37384 1.11051,-0.66635 1.53445,-1.09758c0.40462,-0.41158 0.78953,-0.85019 1.20027,-1.26345l0.08923,-0.08923c0.22732,-0.988 0.88209,-1.72849 1.43192,-2.55653c0.51415,-0.7743 1.24251,-1.49298 1.6858,-2.30513c0.10701,-0.19606 0.19301,-0.40596 0.32586,-0.58552c0.349,-0.70488 0.67121,-1.45757 1.06718,-2.13658c0.20775,-0.35625 0.49126,-0.67023 0.70165,-1.02204c0.25956,-0.43403 0.46341,-0.87648 0.80317,-1.26162c0.42201,-0.47837 0.9703,-0.86959 1.43842,-1.31617c-0.12298,-0.34525 -0.48853,-0.46635 -0.84149,-0.57401c-0.1946,-0.05936 -0.52599,-0.19101 -0.74426,-0.12237c-0.36002,0.11321 -0.74667,0.48652 -1.06238,0.69464c-0.59843,0.39451 -1.24126,0.60334 -1.80621,1.05531c-0.8035,0.5799 -1.2342,1.87863 -2.24838,2.16674c-0.45948,0.13053 -1.14786,-0.04638 -1.41574,-0.46317c-0.01702,-0.02648 -0.1662,-0.72523 -0.18848,-0.86102c-0.13663,-0.83257 -0.06998,-1.70142 -0.06998,-2.54372c0,-0.43278 -0.01855,-0.85746 0.03171,-1.28256c-0.09488,-0.13458 -0.09488,-0.29675 -0.09488,-0.29675c0,-0.55468 -0.08063,-1.1865 0.00855,-1.73208c0.09402,-0.57516 0.31954,-1.12876 0.37279,-1.72592c0.05422,-0.60801 0.0094,-1.22295 0.06317,-1.832c0.04504,-0.51011 0.12565,-0.99794 0.12635,-1.51614c0.11349,-0.56746 0.01259,-1.13277 0.06317,-1.70565c0.03954,-0.44778 0.12485,-0.88907 0.12404,-1.34311c-0.00039,-0.2195 0.08408,-0.6715 -0.02191,-0.88054c-0.22757,-0.44887 -0.44888,-1.05542 -1.06013,-0.88101c-0.12253,0.03497 -0.17897,0.18146 -0.27085,0.26976c-0.52397,1.09516 -0.674,2.36712 -0.79729,3.56c-0.07257,0.70219 -0.38272,1.38317 -0.44151,2.07709c-0.03802,0.44877 0.01173,0.87719 -0.06317,1.32662c0.00399,0.68282 -0.19525,1.29597 -0.25338,1.96595c-0.06676,0.76951 -0.26631,1.7151 -0.94136,2.22454c-0.12464,0.09406 -0.2787,0.14478 -0.4281,0.19019c-0.20959,0.06371 -0.43446,0.20226 -0.64308,0.13544c-0.19913,-0.06378 -0.27033,-0.31922 -0.4117,-0.47328c-0.20622,-0.22473 -0.34007,-0.28302 -0.48844,-0.57706c-0.28512,-0.56508 -0.24363,-1.18955 -0.24363,-1.7992c0,-0.54148 -0.01113,-1.01953 -0.11715,-1.54956l-0.00846,-0.20158c-0.00074,-0.0113 -0.00074,-0.01769 -0.00074,-0.01769c0,-2.21787 0.06317,-4.41559 0.06317,-6.63311z" fill="#000000"/><path d="M239.83607,174.64664c0,0 -0.00035,-0.00624 0.00039,0.00506l0.00846,0.20158c0.10601,0.53004 0.11727,1.00808 0.11727,1.54956c0,0.60965 -0.04069,1.23417 0.24445,1.79925c0.14837,0.29405 0.28461,0.35314 0.49083,0.57787c0.14137,0.15406 0.21465,0.41145 0.41379,0.47523c0.20862,0.06682 0.43389,-0.07104 0.64348,-0.13476c0.1494,-0.04542 0.29215,-0.0905 0.41679,-0.18457c0.67504,-0.50945 0.87592,-1.45324 0.94267,-2.22275c0.05813,-0.66999 0.2583,-1.2824 0.25431,-1.96522c0.07491,-0.44943 0.02564,-0.87757 0.06366,-1.32634c0.0588,-0.69392 0.36929,-1.37473 0.44186,-2.07692c0.12329,-1.19288 0.27364,-2.46471 0.79761,-3.55986c0.09187,-0.08829 0.15291,-0.24657 0.27544,-0.28153c0.61124,-0.17442 0.83313,0.43241 1.06071,0.88127c0.10599,0.20904 0.0217,0.66114 0.0221,0.88064c0.00081,0.45403 -0.08423,0.89549 -0.12377,1.34326c-0.05058,0.57288 0.05078,1.13852 -0.06271,1.70598c-0.00069,0.5182 -0.08083,1.00643 -0.12588,1.51654c-0.05377,0.60905 -0.00824,1.22479 -0.06246,1.83279c-0.05325,0.59715 -0.27813,1.1518 -0.37214,1.72696c-0.08918,0.54558 -0.00798,1.17915 -0.00798,1.73384c0,0 0.00005,0.16252 0.09492,0.29711c-0.05025,0.4251 -0.03172,0.85127 -0.03172,1.28406c0,0.8423 -0.0675,1.71358 0.06914,2.54615c0.02229,0.1358 0.17114,0.83503 0.18816,0.86151c0.26787,0.4168 0.94587,0.58653 1.40535,0.456c1.01419,-0.28811 1.44406,-1.58499 2.24756,-2.16488c0.56495,-0.45196 1.20763,-0.65997 1.80606,-1.05448c0.31571,-0.20812 0.70232,-0.58101 1.06234,-0.69422c0.21826,-0.06863 0.56227,0.06372 0.75687,0.12309c0.35296,0.10766 0.71849,0.229 0.84147,0.57424c-0.46812,0.44659 -1.01653,0.83853 -1.43854,1.3169c-0.33977,0.38514 -0.5438,0.82829 -0.80336,1.26232c-0.21039,0.35181 -0.49414,0.66637 -0.70189,1.02263c-0.39596,0.67901 -0.71881,1.43278 -1.06781,2.13767c-0.13285,0.17955 -0.21906,0.38973 -0.32608,0.58579c-0.44329,0.81215 -1.17268,1.53184 -1.68683,2.30613c-0.54984,0.82804 -1.20564,1.56918 -1.43296,2.55718l-0.08928,0.08925c-0.41074,0.41326 -0.79631,0.85214 -1.20092,1.26372c-0.42393,0.43123 -1.05442,0.72395 -1.53517,1.09779c-0.40343,0.31371 -0.79647,0.6986 -1.27615,0.88233c-0.18287,0.07315 -0.35257,0.18822 -0.54558,0.22738c-0.57235,0.11611 -1.32101,-0.01802 -1.89358,-0.07008c-0.7961,-0.07237 -1.59688,-0.2529 -2.3939,-0.31526c-0.42082,-0.03292 -0.85994,-0.00642 -1.2848,-0.0028l-0.1944,-0.07662c-0.60946,-0.36568 -1.32418,-0.47027 -1.93754,-0.81009c-1.0271,-0.56906 -1.82553,-1.62414 -2.41713,-2.61098c-0.18379,-0.30447 -0.45743,-0.56583 -0.62532,-0.87304c-0.69217,-1.26662 -0.83419,-2.66273 -1.15225,-4.04247c-0.18743,-0.81306 -0.41466,-1.61966 -0.57726,-2.43269c-0.39708,-1.00778 -0.5512,-2.10398 -0.74503,-3.16435c-0.04084,-0.22342 -0.01503,-0.4582 -0.07297,-0.6778c-0.15084,-0.57178 -0.35747,-1.10062 -0.59101,-1.64521c-0.15709,-0.36634 -0.34069,-0.67386 -0.40553,-1.06195c-0.01142,-0.15815 -0.07941,-0.25774 -0.16042,-0.32025c-0.01949,-0.0181 -0.0413,-0.03494 -0.06568,-0.04968c-0.19743,-0.54635 -0.55777,-0.97574 -0.73929,-1.55006c-0.19631,-0.62111 -0.04325,-1.49371 -0.04325,-2.14004c0,-0.18187 -0.08001,-0.37215 -0.02423,-0.54526c0.06805,-0.21119 0.25463,-0.3718 0.32065,-0.58362c0.07967,-0.25555 -0.02313,-0.31119 0.0789,-0.2262c0.42442,0.07439 0.36185,0.31414 0.60116,0.67718c0.2119,0.32145 0.35951,0.69263 0.56631,1.00693c0.06548,0.09951 0.18287,0.15613 0.25271,0.25263c0.069,0.09534 0.11016,0.4366 0.13099,0.50572c0.14282,0.47397 0.41585,0.90209 0.57828,1.35478c0.04326,0.12056 0.019,0.25864 0.06322,0.37885c0.23342,0.63454 0.68031,1.16991 0.93822,1.80239c0.06916,0.35908 0.11281,0.71721 0.29384,1.04406c0.47443,0.85654 1.99957,1.62028 2.69642,0.5262c0.23483,-0.36869 0.14114,-0.9008 0.0638,-1.29426c-0.17246,-0.87726 -0.33514,-1.75804 -0.51529,-2.63403c-0.07808,-0.18324 -0.07452,-0.39163 -0.1151,-0.58663c-0.14058,-0.67564 -0.44424,-1.34508 -0.64234,-2.00452c-0.13857,-0.46126 -0.13824,-0.96057 -0.24537,-1.42726c-0.23462,-1.022 -0.61846,-1.92763 -0.61846,-2.98718c0,-0.63807 -0.06063,-1.30776 0.05583,-1.93644c0.03034,-0.16378 -0.0044,-0.34899 0.07816,-0.49366c0.03651,-0.06398 0.11616,-0.09105 0.17005,-0.14128c0.11173,-0.10413 0.17659,-0.27621 0.32034,-0.32785c0.19564,-0.07028 0.4126,0.17936 0.54131,0.23567c0.15228,0.06663 0.37269,-0.0256 0.49022,0.09193c0.09984,0.09984 0.03585,0.29299 0.07302,0.4292c0.11454,0.41966 0.24588,0.78767 0.30693,1.22175c0.18941,0.94421 0.32072,1.91527 0.50765,2.852c0.09595,0.48086 0.31024,0.96897 0.45509,1.44c0.17469,0.56806 0.32185,1.15408 0.50944,1.71647c0.0781,0.23414 0.17261,0.46631 0.21817,0.70839c-0.00281,0.0919 0.027,0.1737 0.0606,0.23604c0.01215,0.02629 0.02732,0.054 0.04614,0.08122c0.0423,0.28564 0.03212,0.55728 0.03614,0.85646c0.16691,0.51736 0.41887,0.993 0.58262,1.51106c0.17107,0.54125 -0.09101,0.91781 0.37225,1.39872c0.31526,0.32727 0.97689,0.55496 1.41877,0.34c0.17522,-0.08524 0.53576,-0.634 0.60961,-0.82354c0.21563,-0.55334 0.09693,-1.29627 0.09693,-1.87887c0,0 0.00002,-0.01188 -0.00185,-0.03184l-0.00723,-0.12434c-0.08081,-0.38717 -0.05326,-0.77602 -0.05326,-1.17099c-0.00486,-1.06843 -0.06206,-2.14656 -0.06206,-3.22227c0,-0.69843 0.06753,-1.43623 -0.00191,-2.13149c-0.05556,-0.55626 -0.1894,-1.07837 -0.1894,-1.64251c-0.21721,-1.12249 -0.14508,-2.22587 0.05805,-3.34245c0.1061,-0.58322 0.19018,-1.22536 0.89077,-1.32654c0,0 0.11326,-0.02264 0.21672,-0.10142c0.08799,-0.00122 0.17489,-0.00571 0.25911,-0.01574c0.03819,-0.00455 0.06962,-0.06722 0.10402,-0.05002c0.0344,0.0172 0.00338,0.07975 0.02237,0.11319c0.16248,0.28606 0.24791,0.57283 0.39694,0.87384c0.0925,0.18685 0.2281,0.35597 0.28627,0.55619c0.11663,0.4014 0.06886,0.76886 0.10905,1.17513c0.04772,0.48246 0.19014,0.91745 0.18729,1.40628c0,2.21751 -0.06295,4.42787 -0.06295,6.64573z" data-paper-data="{&quot;noHover&quot;:false,&quot;origItem&quot;:[&quot;Path&quot;,{&quot;applyMatrix&quot;:true,&quot;segments&quot;:[[[498,138.5],[0,35.10251],[0.04511,-7.738]],[[495.0365,116.23903],[0.75543,7.63718],[-0.63612,-6.43106]],[[493.31093,97.6371],[1.84614,6.35405],[-0.92084,-3.16937]],[[488.78115,88.83272],[1.46433,2.95781],[-2.359,-4.76495]],[[482.5,75],[2.57197,4.52825],[-0.30068,-0.52938]],[[482.1459,73.2082],[0.54454,0.27227],[-0.54454,-0.27227]],[[480.5,74],[0.60454,-0.07203],[-1.33312,0.15883]],[[476.40007,74.24898],[1.3929,-0.01936],[-1.63774,1.24709]],[[472.97087,75.85436],[0,0],[-11.09,1.6017]],[[458.87711,96.85211],[1.67954,-9.23215],[-3.21549,17.67498]],[[457.9635,149.76097],[-3.43835,-17.76872],[0,8.93014]],[[460.9635,175.76097],[-0.87944,-8.80545],[1.09918,11.00568]],[[461,209.5],[0,-11.05596],[0,17.028]],[[462,260.5],[-0.07692,-16.91289],[0,6.25216]],[[462.85436,279.02913],[-1.27921,-6.12878],[0,0]],[[462.97031,280.99636],[0,0],[0.02969,0.31597]],[[463,281.5],[0,0],[0,9.22252]],[[461.49541,311.20448],[3.41333,-8.75925],[-1.16914,3.00022]],[[451.8541,324.2082],[2.77379,-1.34929],[-6.99501,3.40267]],[[429.1967,318.8033],[4.99047,5.18064],[-7.33322,-7.61267]],[[423.31093,296.6371],[2.70796,8.56771],[-2.59197,-8.20075]],[[414.09684,272.70137],[2.64211,8.18967],[-0.06369,-4.7359]],[[413.53061,259.13579],[0.66965,4.52154],[-0.29784,-0.43087]],[[412.80057,257.84972],[0.1923,0.41616],[-0.53193,-0.98669]],[[411.84261,254.1118],[-0.04462,1.45481],[-0.72104,-3.83223]],[[408.39246,242.89436],[1.23631,3.70639],[-2.96949,-8.90237]],[[400.33503,215.71658],[2.76532,8.99209],[-2.29299,-7.45619]],[[393.13533,192.91831],[1.51892,7.61193],[-2.95889,-14.82819]],[[385.10767,147.76625],[2.99833,14.94662],[-0.96654,-6.87122]],[[380.25125,128.42501],[1.81322,6.64313],[-0.58852,-2.15618]],[[379.1967,121.8033],[1.58042,1.58042],[-1.86052,-1.86052]],[[371.43873,120.3468],[2.41053,1.05472],[-2.03745,-0.89148]],[[362.87171,116.61512],[3.09689,-1.11257],[-2.27529,0.81741]],[[357.8033,121.8033],[1.76861,-1.64837],[-0.85305,0.79505]],[[355.11256,124.03893],[0.57796,-1.01279],[-1.30687,2.29009]],[[353.87711,131.85211],[0.4803,-2.59264],[-1.84363,9.9519]],[[353,162.5],[0,-10.10049],[0,16.77243]],[[362.79937,209.77685],[-3.71398,-16.17796],[1.69594,7.38747]],[[366.68907,232.3629],[-2.1935,-7.30161],[3.13588,10.43857]],[[376.86467,264.08169],[-2.22528,-10.69518],[0.64226,3.08683]],[[378.68907,273.3629],[-1.23605,-2.90055],[2.85172,13.86665]],[[386.85436,315.02913],[-2.72994,-13.88671],[1.22441,6.22834]],[[385.84505,335.49879],[3.71725,-5.83624],[-11.03084,17.31888]],[[342.96177,327.17444],[7.51016,13.55881],[-2.86578,-5.17386]],[[338.31093,310.6371],[1.09479,5.68405],[-4.08261,-10.01193]],[[323.46189,282.09134],[3.69506,10.04457],[-0.70002,-1.90292]],[[322.46189,276.09134],[0.68475,1.90846],[-2.57112,-7.16597]],[[313.31093,254.6371],[2.26083,7.50278],[-0.32973,-1.09424]],[[311.23869,246.62868],[1.09226,1.5092],[-1.10553,-1.52753]],[[307.23869,242.62868],[1.03645,1.57522],[-3.27364,-4.97534]],[[298.27614,226.68492],[3.35433,5.08844],[-3.78825,-5.74669]],[[288.76097,215.9635],[6.71844,1.17765],[-1.61523,-1.34526]],[[287.68907,219.6371],[1.26108,-4.04527],[-1.0453,3.35309]],[[282.61512,228.87171],[1.07718,-3.34299],[-0.88296,2.74022]],[[283,237.5],[0,-2.87896],[0,10.23117]],[[283.68907,271.3629],[-3.10752,-9.83188],[2.8734,9.09115]],[[295.3939,295.89],[-3.12519,-8.64855],[0.38591,0.23316]],[[296.43364,296.67603],[-0.30858,-0.28654],[1.28239,0.98967]],[[298.97334,301.74328],[-0.18069,-2.50352],[1.02649,6.14345]],[[305.39359,318.54561],[-2.48676,-5.79907],[3.69674,8.62074]],[[314.74875,344.57499],[-2.38774,-9.05107],[0.91707,3.47627]],[[315.90316,355.29863],[-0.64647,-3.5366],[3.06822,16.78523]],[[327.68907,405.3629],[-6.28561,-15.95291],[2.57399,12.86997]],[[336.81728,443.85459],[-2.96699,-12.87052],[5.03489,21.84087]],[[355.03823,507.82556],[-10.95678,-20.05014],[2.65747,4.86298]],[[364.9312,521.64128],[-2.90932,-4.81965],[9.36481,15.62131]],[[403.17444,562.96177],[-16.2587,-9.00798],[9.70921,5.3793]],[[433.83272,575.78115],[-9.64759,-5.78855],[0,0]],[[436.90882,576.99376],[0,0],[6.72531,-0.05733]],[[457.23903,577.0365],[-6.66152,-0.52119],[12.61643,0.98709]],[[495.1186,582.02555],[-12.60215,-1.14565],[9.06367,0.82397]],[[525.08169,583.13533],[-9.06016,1.83798],[3.05543,-0.61984]],[[533.71457,579.53642],[-2.89468,1.15787],[7.59317,-2.90846]],[[553.90683,565.57102],[-6.38613,4.96598],[7.61007,-5.91773]],[[578.1967,548.1967],[-6.71076,6.8262],[6.405,-6.51518]],[[597.1967,528.1967],[-6.50197,6.54174],[0,0]],[[598.60921,526.78419],[0,0],[3.59845,-15.63974]],[[621.27614,486.31508],[-8.70376,13.10763],[8.13884,-12.25687]],[[647.96177,449.82556],[-7.01707,12.85604],[1.69398,-3.10355]],[[653.12012,440.55702],[-2.10306,2.84231],[5.52451,-11.15814]],[[670.01317,406.73555],[-6.26796,10.74857],[3.28859,-5.63941]],[[681.12012,390.55702],[-3.33041,5.56905],[4.10879,-6.87064]],[[693.8341,370.58599],[-5.37837,6.09667],[6.68022,-7.57239]],[[716.60392,349.75131],[-7.41016,7.06942],[-1.94667,-5.46514]],[[703.28342,340.66497],[5.58725,1.70421],[-3.08051,-0.93961]],[[691.502,338.72786],[3.45506,-1.08648],[-5.69896,1.7921]],[[674.68492,349.72386],[4.9975,-3.29457],[-9.47296,6.24498]],[[646.09317,366.42898],[8.94295,-7.15436],[-12.71917,9.17951]],[[610.502,400.72786],[16.05427,-4.56074],[-7.27335,2.06623]],[[588.0913,393.39597],[4.24039,6.59771],[-0.26942,-0.4192]],[[585.10767,379.76625],[0.35278,2.14957],[-2.16292,-13.17932]],[[584,339.5],[0,13.33332],[0,-6.85078]],[[584.50186,319.19753],[-0.79542,6.7292],[-1.50186,-2.13045]],[[583,314.5],[0,0],[0,-8.78046]],[[583.13533,287.08169],[-1.41174,8.63635],[1.48829,-9.10463]],[[589.0365,259.76097],[-0.84291,9.45276],[0.85823,-9.62449]],[[590.0365,230.76097],[-0.85127,9.64117],[0.71297,-8.07483]],[[592.0365,206.76097],[-0.01106,8.20301],[1.79654,-8.98269]],[[593.0365,179.76097],[-0.80071,9.06856],[0.62585,-7.08815]],[[595,158.5],[0.01295,7.18719],[-0.00626,-3.47467]],[[594.6532,144.56127],[1.67771,3.3091],[-3.60243,-7.10543]],[[577.87171,130.61512],[9.67582,-2.76092],[-1.93963,0.55346]],[[573.58432,134.88533],[1.45432,-1.39765],[-8.29432,17.33599]],[[560.9635,191.23903],[1.95156,-18.88288],[-1.14879,11.11544]],[[553.97445,224.1186],[0.93071,-10.9845],[-0.6019,7.10382]],[[552.97445,245.1186],[1.18573,-7.11436],[0.06304,10.80882]],[[548.9635,276.23903],[0.92014,-10.6057],[-1.05682,12.18108]],[[534.06215,311.45288],[10.68569,-8.06443],[-1.97299,1.489]],[[527.28543,314.46358],[2.36494,-0.71893],[-3.31779,1.00858]],[[517.10564,316.60754],[3.30244,1.05776],[-3.15222,-1.00965]],[[510.58846,309.11559],[2.23791,2.43878],[-3.26445,-3.55747]],[[502.85666,299.9808],[2.3486,4.65466],[-4.51341,-8.94508]],[[499,271.5],[0,9.65056],[0,-8.57144]],[[497.14564,246.97087],[1.67806,8.39029],[0,0]],[[497.01175,243.77999],[0,0],[-0.01175,-0.17883]],[[497,243.5],[0,0],[0,-35.10822]]],&quot;closed&quot;:true}]}" fill="#ffffff"/></g></g></g></svg>