<svg version="1.1" xmlns="http://www.w3.org/2000/svg" xmlns:xlink="http://www.w3.org/1999/xlink" width="83.775" height="94.55" viewBox="0,0,83.775,94.55"><g transform="translate(-198.25,-128.32156)"><g stroke-miterlimit="10"><path d="M279,175.90345c0,20.71068 -17.46089,37.5 -39,37.5c-21.53911,0 -39,-16.78932 -39,-37.5c0,-20.71068 17.46089,-37.5 39,-37.5c21.53911,0 39,16.78932 39,37.5z" fill="#b1b1b1" stroke="#000000" stroke-width="5.5"/><text transform="translate(209.95,206.59657) scale(1.55,1.55)" font-size="40" xml:space="preserve" fill="#ff0000" stroke="none" stroke-width="1" font-family="Pixel" font-weight="normal" text-anchor="start"><tspan x="0" dy="0">10</tspan></text><g fill="none" stroke="#000000"><path d="M279,180c0,20.71068 -17.46089,37.5 -39,37.5c-21.53911,0 -39,-16.78932 -39,-37.5c0,-20.71068 17.46089,-37.5 39,-37.5c21.53911,0 39,16.78932 39,37.5z" stroke-width="5.5"/><g stroke-width="2.5"><path d="M227.25,203.35v-24.25h25.5v24.25z"/><path d="M246.3,178.8c0,0.18552 0.51493,-14.3866 -6.325,-14.85c-10.11998,-0.68562 -6.525,16.74198 -6.525,14.45c0,-0.67206 -4.8126,1.3239 -5.05993,-0.89051c-0.59616,-5.33763 1.76789,-18.05949 11.18493,-18.05949c10.88116,0 12.80902,13.90981 12.19683,19.08511c-0.13743,1.1618 -5.47183,-0.15531 -5.47183,0.26489z"/></g></g></g></g></svg>