<svg version="1.1" xmlns="http://www.w3.org/2000/svg" xmlns:xlink="http://www.w3.org/1999/xlink" width="509.99821" height="570" viewBox="0,0,509.99821,570"><g transform="translate(6.53597,116)"><g data-paper-data="{&quot;isPaintingLayer&quot;:true}" fill-rule="nonzero" stroke-linejoin="miter" stroke-miterlimit="10" stroke-dasharray="" stroke-dashoffset="0" style="mix-blend-mode: normal"><path d="M-6.53597,454v-570h495.47044v570z" fill="#4a4a4a" stroke="none" stroke-width="0" stroke-linecap="butt"/><path d="M22.66671,322.26952v-323.01952h50.75075v323.01952z" fill="#636363" stroke="none" stroke-width="0" stroke-linecap="butt"/><path d="M27.66671,327.26952v-55.18983h50.75076v55.18983z" fill="#636363" stroke="none" stroke-width="0" stroke-linecap="butt"/><path d="M137.21523,308.27727v-290.55977h319.9136v290.55977z" fill="#6d6d6d" stroke="none" stroke-width="0" stroke-linecap="butt"/><path d="M71.43864,176.26185v-32.88831h68.76647v32.88831z" fill="#636363" stroke="none" stroke-width="0" stroke-linecap="butt"/><path d="M136.52962,175.75l-62.5,0.25" fill="none" stroke="#000000" stroke-width="2" stroke-linecap="round"/><path d="M137.02959,144.25l-62.75,-0.75" fill="none" stroke="#000000" stroke-width="2" stroke-linecap="round"/><path d="M206.26269,198.12945l120.47881,-0.45901l-5.2398,37.08866l-112.9788,1.43528z" fill="#8e4c00" stroke="none" stroke-width="0" stroke-linecap="butt"/><path d="M185.20438,250v-125.5h26.79568v125.5z" fill="#4a4a4a" stroke="none" stroke-width="0" stroke-linecap="butt"/><path d="M134.70433,250.5v-18h212.29568v18z" fill="#4a4a4a" stroke="none" stroke-width="0" stroke-linecap="butt"/><path d="M136.60339,130.35488l-0.9985,-112.26629l321.81982,0.07016l-0.17117,291.74215l-321.15165,-0.02057l0.5,-145.14439" fill="none" stroke="#000000" stroke-width="2.5" stroke-linecap="round"/><path d="M319.20437,249v-125.5h26.79569v125.5z" fill="#4a4a4a" stroke="none" stroke-width="0" stroke-linecap="butt"/><path d="M256.70437,80.5v-21.5h147.29569v21.5z" fill="#4a4a4a" stroke="none" stroke-width="0" stroke-linecap="butt"/><path d="M256.20437,80v-30h22.79568v30z" fill="#4a4a4a" stroke="none" stroke-width="0" stroke-linecap="butt"/><path d="M380.7044,80v-30h22.79568v30z" fill="#4a4a4a" stroke="none" stroke-width="0" stroke-linecap="butt"/><path d="M261.19525,179.64083c0,0 -0.7038,0.06529 -0.7038,-0.70255c0,-3.09988 -0.06544,-23.2908 -0.06544,-23.2908h24.85875v24.85875c0,0 -21.21371,0 -23.88678,0c-0.53921,0 -0.20273,-0.8654 -0.20273,-0.8654z" fill="#8e4c00" stroke="none" stroke-width="0" stroke-linecap="butt"/><path d="M261.73348,149.5875v-12.05657h24.85875v12.05657z" fill="#8e4c00" stroke="none" stroke-width="0" stroke-linecap="butt"/><path d="M266.13113,161.04842v-18.23693h3.66893v18.23693z" fill="#8e4c00" stroke="none" stroke-width="0" stroke-linecap="butt"/><path d="M278.03351,161.03153v-18.23693h3.66893v18.23693z" fill="#8e4c00" stroke="none" stroke-width="0" stroke-linecap="butt"/><path d="M285.48598,192.98014l-3.95993,-17.80182l3.58139,-0.79666l3.95993,17.80182z" fill="#8e4c00" stroke="none" stroke-width="0" stroke-linecap="butt"/><path d="M264.38719,195.95727c0,0 -3.35415,-15.07857 -3.79282,-17.0506c-0.09208,-0.41393 0.55276,-0.75122 0.55276,-0.75122l2.86153,-0.79666l3.95993,17.80182z" fill="#8e4c00" stroke="none" stroke-width="0" stroke-linecap="butt"/><path d="M285.7272,174.38879l-3.95993,-17.80182l3.58139,-0.86211l3.95993,17.86726z" fill="#8e4c00" stroke="none" stroke-width="0" stroke-linecap="butt"/><path d="M245.24961,224.28702v-4.30928h51.71135v4.30928z" fill="#000000" stroke="none" stroke-width="0" stroke-linecap="butt"/><path d="M266.07777,229.31451v-7.18213h10.05499v7.18213z" fill="#000000" stroke="none" stroke-width="0" stroke-linecap="butt"/><path d="M254.80678,214.23204v-9.33677h34.96994v9.33677z" fill="#000000" stroke="none" stroke-width="0" stroke-linecap="butt"/><path d="M228.0125,219.97774v-15.08248h15.80069v15.08248z" fill="#cccccc" stroke="none" stroke-width="0" stroke-linecap="butt"/><path d="M233.7582,214.23204v-5.74571h2.87285v5.74571z" fill="#000000" stroke="none" stroke-width="0" stroke-linecap="butt"/><g stroke-width="1.5" stroke-linecap="butt"><path d="M313.84689,213.61398c0,2.67389 -2.56173,4.8415 -5.72178,4.8415c-3.16005,0 -5.72178,-2.16762 -5.72178,-4.8415c0,-2.67389 2.56173,-4.8415 5.72178,-4.8415c3.16005,0 5.72178,2.16762 5.72178,4.8415z" fill="#ffffff" stroke="#000000"/><path d="M311.93715,213.56816c0,1.8166 -1.7404,3.28924 -3.88729,3.28924c-2.14689,0 -3.88729,-1.47264 -3.88729,-3.28924c0,-1.8166 1.74039,-3.28924 3.88729,-3.28924c2.14689,0 3.88729,1.47264 3.88729,3.28924z" fill="#ffffff" stroke="#000000"/><path d="M312.61091,210.41765c-0.26264,-0.52529 0.26264,-0.78794 0.26264,-0.78794c0.55084,-0.27356 2.04541,-1.67365 2.64167,-1.47134c2.15866,0.73242 -1.3194,3.74548 -1.3194,3.74548c0,0 -0.48669,0.16223 -0.70195,-0.27144c-0.13572,0.08214 -0.32817,0.12382 -0.56961,-0.01415c-0.50991,-0.29138 -0.21853,-0.80129 -0.21853,-0.80129c0.0328,-0.05696 0.0647,-0.11172 0.09599,-0.16442c-0.07023,-0.05054 -0.1362,-0.12569 -0.19081,-0.23491z" fill="#000000" stroke="none"/></g><path d="M420.88036,204.39378v-40.44406h82.58188c0,0 0,10.21129 0,16.13993c0,7.27518 0,24.30413 0,24.30413z" fill="#6d6d6d" stroke="none" stroke-width="0" stroke-linecap="butt"/><path d="M136.27963,176.75h-62l-30.25004,-0.625l0.5,-32l29.5,-0.125h63.25l-39,0.375l-0.25,32.25l-10.25,0.25l-0.75,-33h-10l0.75,33.25" fill="none" stroke="#000000" stroke-width="2" stroke-linecap="round"/><g stroke="none" stroke-width="0" stroke-linecap="butt"><path d="M443.20885,31.722l6.50244,-8.24428l2.35551,1.85784l-6.50244,8.24428z" fill="#9a9a9a"/><path d="M437.09072,44.72704c-0.59853,0.75887 -1.83563,0.78102 -2.76313,0.04947c-0.9275,-0.73154 -1.19419,-1.93975 -0.59565,-2.69862c0.59853,-0.75887 1.83564,-0.78101 2.76313,-0.04947c0.9275,0.73154 1.19419,1.93975 0.59565,2.69862z" fill="#000000"/><path d="M432.96858,41.47582l10.99223,-13.93677l5.2999,4.18014l-10.99223,13.93677z" fill="#9a9a9a"/><path d="M457.02385,25.10606c-1.53909,1.95137 -4.72019,2.00833 -7.1052,0.12722c-2.38501,-1.88111 -3.07076,-4.98794 -1.53167,-6.93931c1.53909,-1.95137 4.72019,-2.00833 7.1052,-0.12722c2.38501,1.88111 3.07076,4.98794 1.53167,6.93931z" fill="#9a9a9a"/></g><g stroke="none" stroke-width="0" stroke-linecap="butt"><path d="M446.2193,296.99772l7.46518,7.38384l-2.10967,2.13291l-7.46517,-7.38384z" fill="#9a9a9a"/><path d="M433.98025,289.46326c-0.68715,-0.67967 -0.57078,-1.91147 0.25992,-2.75133c0.83069,-0.83985 2.06116,-0.96971 2.74831,-0.29004c0.68715,0.67967 0.57077,1.91147 -0.25992,2.75132c-0.83069,0.83985 -2.06116,0.96971 -2.74831,0.29005z" fill="#000000"/><path d="M437.67217,285.73066l12.61971,12.48221l-4.74675,4.79904l-12.61971,-12.4822z" fill="#9a9a9a"/><path d="M451.24837,311.46608c-1.76696,-1.74771 -1.46773,-4.91521 0.66837,-7.07483c2.13609,-2.15962 5.30013,-2.49354 7.06709,-0.74583c1.76696,1.74771 1.46773,4.91521 -0.66836,7.07483c-2.13609,2.15962 -5.30014,2.49354 -7.06709,0.74583z" fill="#9a9a9a"/></g><g><path d="M34.09142,177.76605v-35.87816h43.85109v35.87816z" fill="#000a0a" stroke="#000a0a" stroke-width="0" stroke-linecap="butt"/><path d="M36.99472,146.23157l-0.24979,29.47498" fill="none" stroke="#ffffff" stroke-width="1" stroke-linecap="round"/><path d="M73.71358,146.73115l0.24979,28.47582" fill="none" stroke="#ffffff" stroke-width="1" stroke-linecap="round"/><path d="M70.21654,174.45761l-0.74936,-27.97625" fill="none" stroke="#ffffff" stroke-width="1" stroke-linecap="round"/><path d="M65.22081,172.70909l-0.49958,-25.22858" fill="none" stroke="#ffffff" stroke-width="1" stroke-linecap="round"/><path d="M60.72459,147.23072l-0.24979,24.97879l-0.24979,2.74767" fill="none" stroke="#ffffff" stroke-width="1" stroke-linecap="round"/><path d="M56.2284,149.22903l-0.49958,26.72731" fill="none" stroke="#ffffff" stroke-width="1" stroke-linecap="round"/><path d="M64.97102,171.21037l0.24979,4.49618" fill="none" stroke="#ffffff" stroke-width="1" stroke-linecap="round"/><path d="M50.73309,147.48051l1.24894,28.9754" fill="none" stroke="#ffffff" stroke-width="1" stroke-linecap="round"/><path d="M47.73562,176.20612l-0.49958,-27.72646" fill="none" stroke="#ffffff" stroke-width="1" stroke-linecap="round"/><path d="M43.23942,175.20697l0.24979,-26.72731" fill="none" stroke="#ffffff" stroke-width="1" stroke-linecap="round"/><path d="M40.49176,147.7303l-0.49958,27.22688" fill="none" stroke="#ffffff" stroke-width="1" stroke-linecap="round"/><path d="M77.21058,149.7286l-41.96437,0.49958" fill="#000a0a" stroke="#000a0a" stroke-width="1" stroke-linecap="round"/><path d="M35.49601,156.47288l41.4648,-0.99915" fill="#000a0a" stroke="#000a0a" stroke-width="1" stroke-linecap="round"/><path d="M75.96169,161.46863l-2.74767,0.49958l-37.96777,0.24979" fill="#000a0a" stroke="#000a0a" stroke-width="1" stroke-linecap="round"/><path d="M77.71019,166.21461l-44.96183,1.49873" fill="#000a0a" stroke="#000a0a" stroke-width="1" stroke-linecap="round"/><path d="M34.49685,172.7091l41.96437,-1.49873" fill="#000a0a" stroke="#000a0a" stroke-width="1" stroke-linecap="round"/></g><g><path d="M118.20381,178.27538v-35.87816h20.40933v35.87816z" fill="#101010" stroke="none" stroke-width="0" stroke-linecap="butt"/><path d="M137.1067,144.40755l0.11626,29.47498" fill="none" stroke="#ffffff" stroke-width="1" stroke-linecap="round"/><path d="M120.0169,144.90713l-0.11626,28.47582" fill="none" stroke="#ffffff" stroke-width="1" stroke-linecap="round"/><path d="M121.9933,144.65734l-0.34877,27.97625" fill="none" stroke="#ffffff" stroke-width="1" stroke-linecap="round"/><path d="M123.96968,170.88508l0.23251,-25.22859" fill="none" stroke="#ffffff" stroke-width="1" stroke-linecap="round"/><path d="M126.29477,173.13317l-0.11626,-2.74767l-0.11626,-24.97879" fill="none" stroke="#ffffff" stroke-width="1" stroke-linecap="round"/><path d="M128.15488,147.40501l0.23251,26.72731" fill="none" stroke="#ffffff" stroke-width="1" stroke-linecap="round"/><path d="M124.08588,169.38635l-0.11626,4.49618" fill="none" stroke="#ffffff" stroke-width="1" stroke-linecap="round"/><path d="M130.71254,145.65649l-0.58129,28.9754" fill="none" stroke="#ffffff" stroke-width="1" stroke-linecap="round"/><path d="M132.10763,174.38211l0.23251,-27.72646" fill="none" stroke="#ffffff" stroke-width="1" stroke-linecap="round"/><path d="M134.08399,146.65565l0.11626,26.72731" fill="none" stroke="#ffffff" stroke-width="1" stroke-linecap="round"/><path d="M135.71163,173.13316l-0.23251,-27.22688" fill="none" stroke="#ffffff" stroke-width="1" stroke-linecap="round"/><path d="M137.92048,148.40416l-19.53121,-0.49957" fill="none" stroke="#000000" stroke-width="1" stroke-linecap="round"/><path d="M118.50556,153.64971l19.2987,0.99915" fill="none" stroke="#000000" stroke-width="1" stroke-linecap="round"/><path d="M137.92049,160.39398l-17.6711,-0.24979l-1.27883,-0.49957" fill="none" stroke="#000000" stroke-width="1" stroke-linecap="round"/><path d="M118.15679,164.39059l20.9263,1.49873" fill="none" stroke="#000000" stroke-width="1" stroke-linecap="round"/><path d="M138.26925,170.88508l-19.53121,-1.49873" fill="none" stroke="#000000" stroke-width="1" stroke-linecap="round"/></g><g stroke="none" stroke-width="0" stroke-linecap="butt"><path d="M144.31551,32.23613l-5.78146,-8.76497l2.50428,-1.65185l5.78145,8.76497z" fill="#9a9a9a"/><path d="M154.73709,42.13325c0.53217,0.8068 0.1642,1.9881 -0.82188,2.63854c-0.98607,0.65043 -2.21686,0.52367 -2.74903,-0.28313c-0.53217,-0.8068 -0.16419,-1.9881 0.82188,-2.63853c0.98607,-0.65043 2.21686,-0.52367 2.74903,0.28312z" fill="#000000"/><path d="M150.35459,45.02399l-9.77342,-14.81698l5.63462,-3.71665l9.77342,14.81697z" fill="#9a9a9a"/><path d="M142.37918,17.04153c1.36843,2.07461 0.42224,5.11226 -2.11341,6.78479c-2.53564,1.67253 -5.70051,1.34658 -7.06895,-0.72803c-1.36843,-2.07461 -0.42224,-5.11226 2.1134,-6.7848c2.53564,-1.67253 5.70052,-1.34658 7.06895,0.72803z" fill="#9a9a9a"/></g></g></g></svg>