<svg version="1.1" xmlns="http://www.w3.org/2000/svg" xmlns:xlink="http://www.w3.org/1999/xlink" width="60.75" height="33.25" viewBox="0,0,60.75,33.25"><g transform="translate(-209.625,-163.375)"><g fill="#0ea225" stroke="#0e9b23" stroke-width="0.5" stroke-miterlimit="10"><path d="M243.625,183.875c0,6.90356 -7.55519,12.5 -16.875,12.5c-9.31981,0 -16.875,-5.59644 -16.875,-12.5c0,-6.90356 7.55519,-12.5 16.875,-12.5c9.31981,0 16.875,5.59644 16.875,12.5z"/><path d="M260,179.375c0,5.79899 -5.98819,10.5 -13.375,10.5c-7.38681,0 -13.375,-4.70101 -13.375,-10.5c0,-5.79899 5.98819,-10.5 13.375,-10.5c7.38681,0 13.375,4.70101 13.375,10.5z"/><path d="M243.5,184.0625c0,-5.28122 5.96021,-9.5625 13.3125,-9.5625c7.35229,0 13.3125,4.28128 13.3125,9.5625c0,5.28122 -5.96021,9.5625 -13.3125,9.5625c-7.35229,0 -13.3125,-4.28128 -13.3125,-9.5625z"/><path d="M253.125,173.6875c0,5.55737 -6.24003,10.0625 -13.9375,10.0625c-7.69747,0 -13.9375,-4.50513 -13.9375,-10.0625c0,-5.55737 6.24003,-10.0625 13.9375,-10.0625c7.69747,0 13.9375,4.50513 13.9375,10.0625z"/><path d="M236.125,189.625c0,-2.48528 3.91751,-4.5 8.75,-4.5c4.83249,0 8.75,2.01472 8.75,4.5c0,2.48528 -3.91751,4.5 -8.75,4.5c-4.83249,0 -8.75,-2.01472 -8.75,-4.5z"/><path d="M233.875,173.5625c0,2.86498 -3.44181,5.1875 -7.6875,5.1875c-4.24569,0 -7.6875,-2.32252 -7.6875,-5.1875c0,-2.86498 3.44181,-5.1875 7.6875,-5.1875c4.24569,0 7.6875,2.32252 7.6875,5.1875z"/></g></g></svg>