<svg version="1.1" xmlns="http://www.w3.org/2000/svg" xmlns:xlink="http://www.w3.org/1999/xlink" width="98.69355" height="57.44767" viewBox="0,0,98.69355,57.44767"><g transform="translate(-191.44067,-135.93896)"><g stroke-miterlimit="10"><path d="M191.44067,193.38663v-47.77188h98.69355v47.77188z" fill="#6d6d6d" stroke="none" stroke-width="none"/><path d="M238.43008,168.3068c6.28822,0 11.38582,4.76515 11.38582,10.64326c0,5.87811 -5.09761,10.64326 -11.38582,10.64326c-6.28822,0 -11.38582,-4.76515 -11.38582,-10.64326c0,-5.87811 5.09761,-10.64326 11.38582,-10.64326z" fill="#00c726" stroke="none" stroke-width="0"/><path d="M230.34108,176.18753c-0.34175,0 -0.61879,-0.27704 -0.61879,-0.61879c0,-0.34175 0.27704,-0.61879 0.61879,-0.61879c0.34175,0 0.61879,0.27704 0.61879,0.61879c0,0.34175 -0.27704,0.61879 -0.61879,0.61879z" fill="#080000" stroke="none" stroke-width="0.5"/><path d="M230.19203,181.18847c-0.34175,0 -0.61879,-0.27704 -0.61879,-0.61879c0,-0.34175 0.27704,-0.61879 0.61879,-0.61879c0.34175,0 0.61879,0.27704 0.61879,0.61879c0,0.34175 -0.27704,0.61879 -0.61879,0.61879z" fill="#080000" stroke="none" stroke-width="0.5"/><path d="M228.84399,175.2246c0.17678,0.17677 0,0.35355 0,0.35355l-0.18634,0.17688c-0.66959,2.17227 0.24155,3.45211 0.25956,5.53523c0,0 0,0.25 -0.25,0.25c-0.25,0 -0.25,-0.25 -0.25,-0.25c0.02398,-2.17837 -0.99062,-3.50653 -0.18488,-5.7981l0.25811,-0.26757c0,0 0.17677,-0.17678 0.35355,0z" fill="#080000" stroke="none" stroke-width="0.5"/><path d="M207.36035,189.58471c-6.28313,0.25299 -11.56832,-4.30321 -11.80481,-10.17656c-0.23649,-5.87335 4.66528,-10.83973 10.94839,-11.09272c6.28313,-0.25299 11.56832,4.30321 11.80481,10.17656c0.23649,5.87335 -4.66528,10.83973 -10.94839,11.09272z" fill="#00c726" stroke="none" stroke-width="0"/><path d="M215.12573,181.38492c0.34147,-0.01375 0.62944,0.25192 0.64318,0.59339c0.01375,0.34147 -0.25192,0.62944 -0.59339,0.64318c-0.34147,0.01375 -0.62944,-0.25192 -0.64318,-0.59339c-0.01375,-0.34147 0.25192,-0.62944 0.59339,-0.64318z" fill="#080000" stroke="none" stroke-width="0.5"/><path d="M215.07346,176.38203c0.34147,-0.01375 0.62944,0.25192 0.64318,0.59339c0.01375,0.34147 -0.25192,0.62944 -0.59339,0.64318c-0.34147,0.01375 -0.62944,-0.25192 -0.64318,-0.59339c-0.01375,-0.34147 0.25192,-0.62944 0.59339,-0.64318z" fill="#080000" stroke="none" stroke-width="0.5"/><path d="M216.66035,182.28683c-0.18375,-0.16951 -0.01422,-0.35326 -0.01422,-0.35326l0.17907,-0.18423c0.58165,-2.19745 -0.38024,-3.4396 -0.48205,-5.52031c0,0 -0.01006,-0.2498 0.23974,-0.25986c0.2498,-0.01006 0.25986,0.23974 0.25986,0.23974c0.06368,2.17757 1.1309,3.46384 0.418,5.78597l-0.24714,0.27774c0,0 -0.16951,0.18375 -0.35326,0.01422z" fill="#080000" stroke="none" stroke-width="0.5"/><g><path d="M241.04862,156.10973c0,4.64128 -5.38247,8.40378 -12.02207,8.40378c-3.5694,0 -11.31493,6.92788 -11.31493,6.92788c0,0 -0.70715,-13.1855 -0.70715,-15.33166c0,-4.64128 5.38247,-8.40378 12.02207,-8.40378c6.63961,0 12.02207,3.7625 12.02207,8.40378z" fill="#ffffff" stroke="#000000" stroke-width="2"/><text transform="translate(220.31379,157.68896) scale(0.5,0.5)" font-size="40" xml:space="preserve" fill="#000000" stroke="none" stroke-width="1" font-family="Sans Serif" font-weight="normal" text-anchor="start"><tspan x="0" dy="0">...</tspan></text></g></g></g></svg>