<svg version="1.1" xmlns="http://www.w3.org/2000/svg" xmlns:xlink="http://www.w3.org/1999/xlink" width="505.4938" height="418.2051" viewBox="0,0,505.4938,418.2051"><g transform="translate(7.66895,20.19213)"><g stroke="none" stroke-width="0" stroke-miterlimit="10"><path d="M-5.36311,398.01297v-418.2051h503.18796v418.2051z" fill="#808080"/><path d="M-2.07799,18.10865v-21.36944h486.39188v21.36944z" fill="#696969"/><path d="M-3.19617,364.19014v-21.36944h486.95097v21.36944z" fill="#696969"/><path d="M-7.66895,365.30835v-48.76523h21.22256v48.76523z" fill="#696969"/><path d="M-7.66895,242.30685v-245.56763h21.22257v245.56763z" fill="#696969"/><path d="M6.30849,171.30141v-21.36944h178.32902v21.36944z" fill="#696969"/><path d="M163.41494,159.56036v-86.22478h21.22256v86.22478z" fill="#696969"/><path d="M475.36689,383.41673v-391.59995h7.64261v391.59995z" fill="#696969"/><path d="M308.51412,210.84494c-4.49704,-3.25862 -4.75724,-6.65206 -4.75724,-6.65206v-11.05797h162.08353v21.36944h-147.85325c0,0 -4.97601,-0.4008 -9.47305,-3.65942z" fill="#696969"/><path d="M269.1652,345.54675v-97.39836h10.3981c0,0 4.03458,1.64579 6.43315,5.12318c2.39858,3.47739 4.3913,10.5698 4.3913,10.5698v81.70538z" fill="#696969"/><path d="M463.47766,346.07275v-259.54507h21.22256v259.54508z" fill="#696969"/></g></g></svg>